<?xml version="1.0" encoding="UTF-8"?>
<svg version="1.1" xmlns="http://www.w3.org/2000/svg" width="512" height="512">
<path d="M0 0 C0.93875977 -0.00095673 1.87751953 -0.00191345 2.84472656 -0.00289917 C4.81445381 -0.00357469 6.78418337 -0.00176464 8.75390625 0.00244141 C11.74223912 0.00779859 14.73042172 0.00247487 17.71875 -0.00390625 C19.64583366 -0.00324536 21.57291723 -0.00196396 23.5 0 C24.37946289 -0.00202423 25.25892578 -0.00404846 26.16503906 -0.00613403 C30.52080524 0.01005937 34.85805853 0.13986629 39.203125 0.45361328 C40.40437012 0.53882736 40.40437012 0.53882736 41.62988281 0.62576294 C44.15954115 1.23075881 45.02003075 2.25555842 46.75 4.1328125 C48.60266073 3.83796096 48.60266073 3.83796096 50.75 3.1328125 C55.73735182 2.93674953 60.24365164 3.43053326 65.125 4.4453125 C66.34960938 4.68894531 67.57421875 4.93257813 68.8359375 5.18359375 C69.79757812 5.49683594 70.75921875 5.81007813 71.75 6.1328125 C72.08 7.1228125 72.41 8.1128125 72.75 9.1328125 C73.64847656 8.89046875 74.54695313 8.648125 75.47265625 8.3984375 C81.34677868 7.5805031 86.71587243 9.97845631 92.1875 11.8828125 C93.37601562 12.28967285 94.56453125 12.6965332 95.7890625 13.11572266 C125.86516314 23.67511878 153.59680129 39.29249272 177.75 60.1328125 C178.50667969 60.77863281 179.26335937 61.42445312 180.04296875 62.08984375 C197.13626659 77.06437435 211.6192804 93.64110792 224.75 112.1328125 C225.51054687 113.20273438 226.27109375 114.27265625 227.0546875 115.375 C229.02776775 118.5846651 229.18060601 120.4296008 228.75 124.1328125 C228.42 124.4628125 228.09 124.7928125 227.75 125.1328125 C228.61625 125.4421875 229.4825 125.7515625 230.375 126.0703125 C235.32081345 129.09275405 238.72419017 133.57264897 240.34765625 139.20703125 C240.69165773 141.5181398 240.75 143.79861485 240.75 146.1328125 C241.49636719 146.66777344 242.24273437 147.20273438 243.01171875 147.75390625 C246.56360526 150.83963933 247.83497057 153.8888961 249.5625 158.1953125 C249.89870361 159.02039307 250.23490723 159.84547363 250.58129883 160.69555664 C261.49752336 188.34982315 267.83814527 217.94308767 268.10009766 247.69238281 C268.11674445 249.07308708 268.14414842 250.4537022 268.18212891 251.83398438 C268.40412572 259.99574541 268.53073686 266.80955359 262.75 273.1328125 C261.76049171 274.14319527 260.76326767 275.14625859 259.75 276.1328125 C260.53375 276.7103125 261.3175 277.2878125 262.125 277.8828125 C265.88513514 281.10578547 265.88513514 281.10578547 266.75 284.1328125 C266.60647125 288.1516175 266.33651639 290.39493704 263.8125 293.5703125 C261.75 295.1328125 261.75 295.1328125 259.75 295.1328125 C259.75 295.7928125 259.75 296.4528125 259.75 297.1328125 C260.74 297.4628125 261.73 297.7928125 262.75 298.1328125 C265.95527301 304.54335851 261.99056632 315.03064585 260.125 321.5703125 C259.85993652 322.51551758 259.59487305 323.46072266 259.32177734 324.43457031 C247.25283046 366.64421661 226.18487669 403.45738377 195.75 435.1328125 C195.234375 435.67035156 194.71875 436.20789063 194.1875 436.76171875 C187.10726076 444.09725508 179.83655676 450.89854296 171.75 457.1328125 C171.17443359 457.58479004 170.59886719 458.03676758 170.00585938 458.50244141 C159.73489995 466.55519625 149.06703305 473.63567417 137.75 480.1328125 C137.05825684 480.53097168 136.36651367 480.92913086 135.65380859 481.33935547 C109.58925599 496.15793901 80.38344356 505.76591576 50.75 510.1328125 C49.59854492 510.30723877 48.44708984 510.48166504 47.26074219 510.66137695 C37.44681776 512.02986467 27.76296265 512.53580472 17.85693359 512.55834961 C15.35549309 512.57040652 12.85640483 512.61996164 10.35546875 512.66992188 C-2.64933724 512.80122744 -10.60451465 510.14924445 -20.25 501.1328125 C-20.3325 501.8959375 -20.415 502.6590625 -20.5 503.4453125 C-21.25 506.1328125 -21.25 506.1328125 -22.875 507.9453125 C-26.23376567 509.62469534 -28.53977771 509.58845383 -32.25 509.1328125 C-33.9574998 507.85218765 -35.63263741 506.5255414 -37.25 505.1328125 C-38.24 505.4628125 -39.23 505.7928125 -40.25 506.1328125 C-47.15374496 506.62814846 -52.91714199 505.12814849 -59.5 503.1328125 C-60.55123047 502.81884521 -61.60246094 502.50487793 -62.68554688 502.18139648 C-109.15340175 487.96691613 -109.15340175 487.96691613 -116.125 475.8828125 C-116.49625 474.9753125 -116.8675 474.0678125 -117.25 473.1328125 C-117.83136719 473.49375 -118.41273437 473.8546875 -119.01171875 474.2265625 C-121.25 475.1328125 -121.25 475.1328125 -123.14453125 474.6640625 C-129.35852375 471.32293415 -135.30210519 467.7727309 -138.25 461.1328125 C-138.97058594 461.21144531 -139.69117188 461.29007812 -140.43359375 461.37109375 C-144.14671689 461.05694602 -145.50468855 459.73850305 -148.3125 457.3203125 C-149.27800781 456.49144531 -150.24351562 455.66257812 -151.23828125 454.80859375 C-152.24363806 453.91830202 -153.24755126 453.02637738 -154.25 452.1328125 C-155.19230469 451.30136719 -156.13460937 450.46992188 -157.10546875 449.61328125 C-160.19754639 446.82999409 -163.23764795 444.0018456 -166.25 441.1328125 C-166.84893066 440.56256348 -167.44786133 439.99231445 -168.06494141 439.40478516 C-176.44560947 431.36583207 -184.08718991 423.09492952 -191.02099609 413.77636719 C-192.21033247 412.18586013 -193.42702768 410.61592528 -194.64453125 409.046875 C-202.28155172 399.13305967 -208.52723461 388.5302442 -214.625 377.6328125 C-215.05417725 376.86694824 -215.48335449 376.10108398 -215.92553711 375.31201172 C-219.24054356 369.31998368 -221.52905078 364.82962302 -221.375 357.8203125 C-221.35695312 356.75167969 -221.33890625 355.68304688 -221.3203125 354.58203125 C-221.29710937 353.77378906 -221.27390625 352.96554687 -221.25 352.1328125 C-222.02859375 352.04 -222.8071875 351.9471875 -223.609375 351.8515625 C-226.25 351.1328125 -226.25 351.1328125 -227.578125 349.6015625 C-229.94403244 344.54894661 -231.3083584 339.75856194 -231.25 334.1328125 C-230.92 333.4728125 -230.59 332.8128125 -230.25 332.1328125 C-231.16265625 331.87177734 -231.16265625 331.87177734 -232.09375 331.60546875 C-235.36862615 329.36882326 -235.81796127 326.23773407 -236.75 322.5703125 C-236.9572168 321.79179932 -237.16443359 321.01328613 -237.37792969 320.21118164 C-240.12874086 309.35853649 -241.78137105 298.22346242 -243.25 287.1328125 C-243.33816986 286.47209244 -243.42633972 285.81137238 -243.5171814 285.13063049 C-244.22550639 279.39716951 -244.39602279 273.75359402 -244.3828125 267.98046875 C-244.38376923 267.04029404 -244.38472595 266.10011932 -244.38571167 265.13145447 C-244.38638798 263.15575086 -244.3845723 261.18004496 -244.38037109 259.2043457 C-244.37502112 256.20714239 -244.3803318 253.21008931 -244.38671875 250.21289062 C-244.38605775 248.28124967 -244.38477615 246.34960882 -244.3828125 244.41796875 C-244.38483673 243.5353688 -244.38686096 242.65276886 -244.38894653 241.74342346 C-244.3317366 226.29628571 -244.3317366 226.29628571 -242.25 222.1328125 C-241.59 222.1328125 -240.93 222.1328125 -240.25 222.1328125 C-240.58 221.1428125 -240.91 220.1528125 -241.25 219.1328125 C-241.5010002 214.02914167 -241.53961584 209.82107351 -239.25 205.1328125 C-236.625 203.2578125 -236.625 203.2578125 -234.25 202.1328125 C-234.91 201.4728125 -235.57 200.8128125 -236.25 200.1328125 C-238.46229602 192.16854682 -235.52935956 185.43175072 -232.875 177.8828125 C-232.41129286 176.53266234 -231.94767063 175.18248302 -231.48413086 173.83227539 C-227.7072887 162.95643003 -223.38250127 152.43930656 -218.25 142.1328125 C-217.59016113 140.79669922 -217.59016113 140.79669922 -216.91699219 139.43359375 C-202.97686952 111.41658478 -202.97686952 111.41658478 -197.02734375 109.3671875 C-196.14755859 109.25117188 -196.14755859 109.25117188 -195.25 109.1328125 C-195.20875 108.3078125 -195.1675 107.4828125 -195.125 106.6328125 C-193.94407251 101.90910255 -191.62707807 98.61542426 -188.25 95.1328125 C-187.3425 94.7821875 -186.435 94.4315625 -185.5 94.0703125 C-184.7575 93.7609375 -184.015 93.4515625 -183.25 93.1328125 C-182.97341553 92.06981934 -182.69683105 91.00682617 -182.41186523 89.91162109 C-181.09542452 85.63007679 -179.57617226 83.8521541 -176.41015625 80.734375 C-175.92856552 80.25511566 -175.44697479 79.77585632 -174.95079041 79.28207397 C-173.93194817 78.27292738 -172.90712153 77.26979054 -171.87670898 76.27246094 C-170.33601341 74.7805809 -168.81422782 73.27143742 -167.29492188 71.7578125 C-160.93244024 65.46833523 -154.29761137 59.65550211 -147.25 54.1328125 C-146.59765381 53.62089355 -145.94530762 53.10897461 -145.27319336 52.58154297 C-135.42031399 44.97866388 -125.01461297 38.36146804 -114.25 32.1328125 C-113.57275879 31.73852051 -112.89551758 31.34422852 -112.19775391 30.93798828 C-78.94386222 11.81108713 -38.45887404 -0.08851953 0 0 Z " fill="#604742" transform="translate(244.25,-0.1328125)"/>
<path d="M0 0 C3.05630827 4.5844624 1.8023679 8.71386221 1 14 C0.27738968 17.52746212 -0.63745484 20.97570071 -1.625 24.4375 C-1.89006348 25.38270508 -2.15512695 26.32791016 -2.42822266 27.30175781 C-14.49716954 69.51140411 -35.56512331 106.32457127 -66 138 C-66.515625 138.53753906 -67.03125 139.07507813 -67.5625 139.62890625 C-74.64273924 146.96444258 -81.91344324 153.76573046 -90 160 C-90.57556641 160.45197754 -91.15113281 160.90395508 -91.74414062 161.36962891 C-102.01510005 169.42238375 -112.68296695 176.50286167 -124 183 C-125.03761475 183.59723877 -125.03761475 183.59723877 -126.09619141 184.20654297 C-152.16074401 199.02512651 -181.36655644 208.63310326 -211 213 C-212.15145508 213.17442627 -213.30291016 213.34885254 -214.48925781 213.52856445 C-224.30318224 214.89705217 -233.98703735 215.40299222 -243.89306641 215.42553711 C-246.39450691 215.43759402 -248.89359517 215.48714914 -251.39453125 215.53710938 C-262.0436509 215.6464197 -269.29200955 214.58691902 -277.82421875 207.73046875 C-280.67781821 204.14938074 -282.74278664 200.38586764 -284.8125 196.3125 C-285.24409424 195.47380371 -285.67568848 194.63510742 -286.12036133 193.77099609 C-296.01249295 174.33670323 -303.4522611 154.66597233 -308.3125 133.375 C-308.67625732 131.80504272 -308.67625732 131.80504272 -309.04736328 130.20336914 C-312.60255923 113.84067401 -313.38025641 97.38096189 -313.3125 80.6875 C-313.31076279 79.35325989 -313.31076279 79.35325989 -313.30899048 77.99206543 C-313.20933109 39.20933109 -313.20933109 39.20933109 -306 32 C-298.75875732 31.60838177 -292.30403062 32.76877913 -285.25 34.3125 C-257.71015954 40.05485833 -230.38854227 42.35434643 -202.26586914 42.26074219 C-198.43815313 42.25000183 -194.61090523 42.26071844 -190.78320312 42.2734375 C-176.07483625 42.28208464 -161.61197981 41.68485905 -147 40 C-145.75871338 39.86464844 -144.51742676 39.72929687 -143.23852539 39.58984375 C-113.10790077 36.11073287 -83.69637051 28.68606035 -55 19 C-54.01789551 18.67032227 -53.03579102 18.34064453 -52.02392578 18.00097656 C-37.93463261 13.2163002 -14.05602941 -3.51400735 0 0 Z " fill="#FE6605" transform="translate(506,297)"/>
<path d="M0 0 C2.74218947 0.00315055 5.48328521 -0.02037171 8.2253418 -0.0456543 C20.16128144 -0.08707583 31.61923912 1.01713089 43.39028931 2.96342468 C46.44390097 3.45578101 49.50730932 3.8591222 52.57495117 4.25317383 C57.01567283 4.82808869 59.39392087 6.11927623 62.57495117 9.31567383 C64.13747471 11.8919193 65.26711922 14.58539022 66.38745117 17.37817383 C66.72365479 18.20325439 67.0598584 19.02833496 67.40625 19.87841797 C78.32247453 47.53268448 84.66309644 77.125949 84.92504883 106.87524414 C84.94169562 108.25594841 84.96909959 109.63656353 85.00708008 111.0168457 C85.3832686 124.84749856 85.3832686 124.84749856 81.14379883 130.71557617 C77.57049043 134.36006158 73.82444621 136.87696849 69.20776367 139.01489258 C68.16982666 139.49716309 67.13188965 139.97943359 66.0625 140.47631836 C64.95285889 140.98018066 63.84321777 141.48404297 62.69995117 142.00317383 C61.53810303 142.53281738 60.37625488 143.06246094 59.17919922 143.6081543 C28.67263135 157.37485856 -2.69792848 167.45531664 -35.42504883 174.31567383 C-36.37009277 174.5188623 -37.31513672 174.72205078 -38.28881836 174.93139648 C-44.63834489 176.27833692 -51.00557174 177.3601104 -57.42504883 178.31567383 C-58.61485352 178.49759277 -59.8046582 178.67951172 -61.03051758 178.86694336 C-111.41282629 186.28016117 -162.82129661 183.47988056 -212.51098633 172.84692383 C-214.07018799 172.5153125 -214.07018799 172.5153125 -215.66088867 172.17700195 C-218.52704012 171.28389276 -220.26741428 170.39300806 -222.42504883 168.31567383 C-223.34822492 162.21501846 -221.24524699 157.3895106 -218.92504883 151.87817383 C-218.56338623 151 -218.20172363 150.12182617 -217.82910156 149.21704102 C-214.41185948 141.04527857 -210.60248756 133.12329707 -206.42504883 125.31567383 C-206.06266113 124.6348877 -205.70027344 123.95410156 -205.3269043 123.25268555 C-200.60950199 114.45492483 -195.56306862 106.21377915 -189.42504883 98.31567383 C-188.57189599 97.19479942 -187.719048 96.07369294 -186.86645508 94.95239258 C-180.78392539 87.01823074 -174.34363645 79.53345616 -167.42504883 72.31567383 C-166.92247559 71.78586914 -166.41990234 71.25606445 -165.90209961 70.71020508 C-158.46694691 62.90665435 -150.66781198 55.96530017 -142.03149414 49.51635742 C-140.58797601 48.43744828 -139.15794265 47.34055299 -137.72973633 46.24145508 C-124.62163844 36.36027425 -110.28098452 28.24239198 -95.42504883 21.31567383 C-94.34739258 20.80649414 -93.26973633 20.29731445 -92.15942383 19.77270508 C-77.21585875 13.04088168 -61.42380122 7.9460866 -45.42504883 4.44067383 C-44.12096069 4.1543811 -44.12096069 4.1543811 -42.79052734 3.86230469 C-28.51718528 0.92183368 -14.53381764 -0.03472375 0 0 Z " fill="#FE770E" transform="translate(427.425048828125,140.684326171875)"/>
<path d="M0 0 C34.05247886 10.08916374 65.60060648 27.12990521 92.4921875 50.33300781 C93.24886719 50.97882812 94.00554687 51.62464844 94.78515625 52.29003906 C141.77559429 93.4558667 141.77559429 93.4558667 143.8671875 111.58300781 C143.4921875 114.33300781 143.4921875 114.33300781 141.4921875 116.33300781 C139.06534119 116.34208579 136.77641643 116.23334523 134.3671875 116.02050781 C132.89974163 115.91110529 131.43229366 115.80173103 129.96484375 115.69238281 C128.47392296 115.57303215 126.98303636 115.45325354 125.4921875 115.33300781 C82.28748031 112.02630313 39.32528696 117.48022042 -0.5078125 135.33300781 C-1.27303223 135.66993652 -2.03825195 136.00686523 -2.82666016 136.35400391 C-21.30111984 144.55570205 -38.7247359 154.65943287 -54.5078125 167.33300781 C-55.41273438 168.04714844 -56.31765625 168.76128906 -57.25 169.49707031 C-71.99481162 181.31798161 -85.90822874 194.38922775 -97.5078125 209.33300781 C-97.96269043 209.91147461 -98.41756836 210.48994141 -98.88623047 211.0859375 C-114.7633507 231.33947743 -127.50154242 253.620001 -136.71875 277.64941406 C-137.00975586 278.40754395 -137.30076172 279.16567383 -137.60058594 279.94677734 C-138.24904935 281.65239667 -138.88650325 283.36221814 -139.51660156 285.07470703 C-139.8565918 285.97334473 -140.19658203 286.87198242 -140.546875 287.79785156 C-141.00247803 289.02749634 -141.00247803 289.02749634 -141.46728516 290.28198242 C-142.5078125 292.33300781 -142.5078125 292.33300781 -145.5078125 294.33300781 C-152.5111457 294.07977995 -158.67015387 291.74678191 -165.1953125 289.33300781 C-166.28150879 288.93581543 -167.36770508 288.53862305 -168.48681641 288.12939453 C-175.85384091 285.40122454 -183.14767522 282.51861052 -190.3828125 279.45800781 C-191.26155029 279.08933594 -192.14028809 278.72066406 -193.0456543 278.34082031 C-193.85558838 277.99019531 -194.66552246 277.63957031 -195.5 277.27832031 C-196.20495605 276.9742627 -196.90991211 276.67020508 -197.63623047 276.35693359 C-199.71750634 275.21828619 -201.04801145 274.20769082 -202.5078125 272.33300781 C-203.77164249 265.94255226 -201.81314303 259.28433719 -200.1328125 253.14550781 C-199.86807129 252.16283936 -199.60333008 251.1801709 -199.33056641 250.16772461 C-183.31990199 192.2245817 -155.74876092 138.72126002 -117.5078125 92.33300781 C-116.29931641 90.86347656 -116.29931641 90.86347656 -115.06640625 89.36425781 C-102.45247239 74.17004177 -88.85949793 59.05480619 -73.77734375 46.25878906 C-71.88127921 44.64990814 -70.00986567 43.02011294 -68.14453125 41.37597656 C-60.16524381 34.35993948 -52.06056137 27.64591329 -43.5078125 21.33300781 C-42.80188965 20.81174316 -42.0959668 20.29047852 -41.36865234 19.75341797 C-33.29536068 13.81438534 -25.22226283 7.93900437 -16.671875 2.70019531 C-14.46159959 1.4083528 -14.46159959 1.4083528 -12.71875 -0.40917969 C-8.62778251 -2.73654989 -4.30752696 -1.14565456 0 0 Z " fill="#FE8817" transform="translate(329.5078125,9.6669921875)"/>
<path d="M0 0 C0.93875977 -0.00095673 1.87751953 -0.00191345 2.84472656 -0.00289917 C4.81445381 -0.00357469 6.78418337 -0.00176464 8.75390625 0.00244141 C11.74223912 0.00779859 14.73042172 0.00247487 17.71875 -0.00390625 C19.64583366 -0.00324536 21.57291723 -0.00196396 23.5 0 C24.37946289 -0.00202423 25.25892578 -0.00404846 26.16503906 -0.00613403 C30.52080524 0.01005937 34.85805853 0.13986629 39.203125 0.45361328 C40.00395508 0.51042267 40.80478516 0.56723206 41.62988281 0.62576294 C44.14819427 1.22804508 45.11363406 2.17110383 46.75 4.1328125 C45.22698046 8.22534354 42.34287118 10.26480694 38.9375 12.7578125 C37.75383829 13.64704496 36.57024646 14.53637045 35.38671875 15.42578125 C34.78134277 15.87614746 34.1759668 16.32651367 33.55224609 16.79052734 C20.20211995 26.73349585 7.5359143 37.30805292 -4.64941406 48.64990234 C-6.3804258 50.25364934 -8.1230624 51.84412241 -9.8671875 53.43359375 C-18.00630868 60.86612595 -18.00630868 60.86612595 -25.4296875 69 C-27.36638851 71.26918187 -29.39811467 73.43564697 -31.44506836 75.60522461 C-37.69025812 82.24263857 -43.37494039 89.17840774 -48.91308594 96.41064453 C-50.19120233 98.0570713 -51.49762395 99.67442226 -52.8203125 101.28515625 C-65.43809028 116.74614312 -76.40989859 133.78160276 -86.25 151.1328125 C-86.68699219 151.89609863 -87.12398438 152.65938477 -87.57421875 153.44580078 C-106.7462933 187.10854948 -120.68026146 222.79095796 -131.06298828 260.05029297 C-131.31161621 260.93217285 -131.56024414 261.81405273 -131.81640625 262.72265625 C-132.02338135 263.48312256 -132.23035645 264.24358887 -132.44360352 265.02709961 C-133.36219262 267.42577688 -134.63033532 269.1525993 -136.25 271.1328125 C-143.36390647 270.85538996 -148.39881378 267.51945311 -154.375 263.8828125 C-155.35082031 263.30917969 -156.32664062 262.73554688 -157.33203125 262.14453125 C-167.34470563 256.14785451 -167.34470563 256.14785451 -170.25 252.1328125 C-171.06479741 246.18479141 -169.47849069 240.17397056 -168.375 234.3203125 C-160.44824721 189.89484747 -160.49733756 135.08285474 -182.25 94.1328125 C-182.875 91.2578125 -182.875 91.2578125 -182.25 88.1328125 C-172.82252006 75.40200297 -159.86362195 63.64181582 -147.25 54.1328125 C-146.71262207 53.71902344 -146.17524414 53.30523437 -145.62158203 52.87890625 C-135.6236221 45.19204661 -125.16188153 38.44668105 -114.25 32.1328125 C-113.57275879 31.73852051 -112.89551758 31.34422852 -112.19775391 30.93798828 C-78.94386222 11.81108713 -38.45887404 -0.08851953 0 0 Z " fill="#FE901C" transform="translate(244.25,-0.1328125)"/>
<path d="M0 0 C5.03280559 1.17485052 9.69910401 3.22363502 14.44384766 5.23925781 C23.41166136 8.9520087 32.39811658 12.40583039 41.61303711 15.45654297 C47.4304818 17.41339195 47.4304818 17.41339195 49.63134766 19.61425781 C50.47799316 25.87119509 49.22471129 32.32325486 48.19384766 38.48925781 C39.71713628 90.16069461 49.3364512 143.05055665 72.21435547 189.84960938 C72.67293945 190.80577148 73.13152344 191.76193359 73.60400391 192.74707031 C74.0191626 193.59156738 74.43432129 194.43606445 74.86206055 195.30615234 C75.73008609 197.91050446 75.62179382 199.08744474 74.63134766 201.61425781 C73.63134766 202.61425781 73.63134766 202.61425781 70.27197266 202.86425781 C64.71873917 202.78527849 59.66297159 201.21517558 54.38134766 199.61425781 C53.33011719 199.30029053 52.27888672 198.98632324 51.19580078 198.6628418 C4.9623765 184.52007358 4.9623765 184.52007358 -1.47583008 173.76464844 C-2.39316873 171.55520931 -2.90480014 169.5438289 -3.33349609 167.19238281 C-3.49205078 166.34119873 -3.65060547 165.49001465 -3.81396484 164.61303711 C-3.97638672 163.70593994 -4.13880859 162.79884277 -4.30615234 161.86425781 C-4.65882414 159.93844125 -5.01168993 158.0126602 -5.36474609 156.08691406 C-5.53603027 155.14348145 -5.70731445 154.20004883 -5.88378906 153.22802734 C-6.28227846 151.07987656 -6.71354656 148.93783168 -7.15380859 146.79785156 C-11.36533269 126.20050693 -14.04049071 104.64394932 -14.36865234 83.61425781 C-14.39443359 82.3084375 -14.42021484 81.00261719 -14.44677734 79.65722656 C-14.76871212 62.16332487 -14.62635 44.79488195 -12.99365234 27.36425781 C-12.93052856 26.68329041 -12.86740479 26.002323 -12.80236816 25.30072021 C-10.83063028 4.57094682 -10.83063028 4.57094682 -8.04760742 0.84619141 C-5.45664078 -1.05493084 -3.04147152 -0.45545345 0 0 Z " fill="#FE780F" transform="translate(130.36865234375,303.3857421875)"/>
<path d="M0 0 C3.2461765 0.82437387 5.65913915 1.93508009 8.55664062 3.60083008 C9.54792969 4.16608398 10.53921875 4.73133789 11.56054688 5.3137207 C12.58019531 5.90733398 13.59984375 6.50094727 14.65039062 7.11254883 C15.67003906 7.69456055 16.6896875 8.27657227 17.74023438 8.8762207 C31.69408434 16.88743625 31.69408434 16.88743625 33.15039062 19.80004883 C33.08799459 29.44023654 31.54713204 39.12048284 30.25488281 48.65600586 C28.16591222 64.47665276 27.91076518 80.24217 27.90039062 96.17504883 C27.89938354 97.25286621 27.89837646 98.33068359 27.89733887 99.44116211 C27.9127375 123.93042022 29.59460803 147.82777324 33.87988281 171.97973633 C34.76936407 177.0010574 35.46158703 181.69642781 35.15039062 186.80004883 C34.15039062 187.80004883 34.15039062 187.80004883 31.90429688 188.10083008 C28.26728534 187.70359619 26.84765263 186.36435743 24.08789062 183.98754883 C23.12238281 183.15868164 22.156875 182.32981445 21.16210938 181.47583008 C20.15675256 180.58553835 19.15283937 179.69361371 18.15039062 178.80004883 C17.20808594 177.96860352 16.26578125 177.1371582 15.29492188 176.28051758 C12.20284424 173.49723042 9.16274268 170.66908193 6.15039062 167.80004883 C5.55145996 167.2297998 4.9525293 166.65955078 4.33544922 166.07202148 C-4.04521885 158.0330684 -11.68679928 149.76216584 -18.62060547 140.44360352 C-19.80994185 138.85309646 -21.02663706 137.2831616 -22.24414062 135.71411133 C-29.88116109 125.800296 -36.12684399 115.19748053 -42.22460938 104.30004883 C-42.65378662 103.53418457 -43.08296387 102.76832031 -43.52514648 101.97924805 C-47.88244165 94.10323479 -50.11871599 87.97222848 -48.84960938 78.80004883 C-47.37367328 75.06372242 -45.2199697 72.02807432 -42.84960938 68.80004883 C-41.66878367 67.15968012 -40.48798924 65.51928876 -39.30786133 63.87841797 C-38.45273068 62.69010674 -37.5957619 61.50311634 -36.73706055 60.31738281 C-32.00358503 53.73041139 -27.84264397 46.8559924 -23.84960938 39.80004883 C-23.47980957 39.14697754 -23.11000977 38.49390625 -22.72900391 37.82104492 C-17.42000613 28.34315953 -12.90852971 18.66022765 -8.85546875 8.57885742 C-8.50548828 7.72501465 -8.15550781 6.87117188 -7.79492188 5.99145508 C-7.49086426 5.23034424 -7.18680664 4.4692334 -6.87353516 3.68505859 C-5.15128982 0.51446816 -3.53316413 -0.24791479 0 0 Z " fill="#FE8114" transform="translate(71.849609375,273.199951171875)"/>
<path d="M0 0 C1.32 0 2.64 0 4 0 C13.62702097 24.63083556 17.37563097 50.0671045 17.31567383 76.35498047 C17.31251849 79.2331352 17.33606505 82.11025273 17.36132812 84.98828125 C17.39568058 94.61066134 16.99280477 104.06351648 15.73046875 113.609375 C15.62237381 114.48120422 15.51427887 115.35303345 15.40290833 116.25128174 C14.66794095 121.19050208 13.752917 124.42457674 10 128 C7.5625 128.55078125 7.5625 128.55078125 5 128 C2.5625 126.41796875 2.5625 126.41796875 0 124.1875 C-0.96035156 123.36378906 -1.92070313 122.54007812 -2.91015625 121.69140625 C-3.41434082 121.25070801 -3.91852539 120.81000977 -4.43798828 120.35595703 C-6.0037194 118.99677125 -7.58909139 117.66511285 -9.18359375 116.33984375 C-15.2266754 111.30728043 -21.13628942 106.15561063 -26.87792969 100.78051758 C-29.54624881 98.28831473 -32.2737564 96.00819273 -35.1875 93.8125 C-38.06655107 90.93344893 -38.78208852 89.55035514 -39.14477539 85.56713867 C-38.81538609 79.72644974 -36.55095891 74.22738335 -34.625 68.75 C-34.16129286 67.39984984 -33.69767063 66.04967052 -33.23413086 64.69946289 C-29.4572887 53.82361753 -25.13250127 43.30649406 -20 33 C-19.56010742 32.10925781 -19.12021484 31.21851563 -18.66699219 30.30078125 C-7.14623092 7.14623092 -7.14623092 7.14623092 0 0 Z " fill="#FE901C" transform="translate(46,109)"/>
<path d="M0 0 C5.24557657 2.75491868 9.17535455 5.79269485 13.375 9.9375 C18.5957638 14.94677535 24.02552949 19.47147519 29.8125 23.8125 C31.24490871 24.8943763 32.67720419 25.97640255 34.109375 27.05859375 C34.77646484 27.56245605 35.44355469 28.06631836 36.13085938 28.58544922 C38.63760688 30.48253583 41.1266297 32.38723792 43.5625 34.375 C44.58537109 35.19097656 44.58537109 35.19097656 45.62890625 36.0234375 C47.78680553 39.13425527 47.41817486 41.27409969 47 45 C46.0558462 48.24477943 44.81029725 51.32494187 43.5 54.4375 C43.1390625 55.31422363 42.778125 56.19094727 42.40625 57.09423828 C38.98964508 65.26650813 35.18286509 73.19473253 31 81 C30.68063477 81.60005859 30.36126953 82.20011719 30.03222656 82.81835938 C24.80052006 92.55942509 18.87113143 103.12886857 11 111 C8.9765625 110.84838867 8.9765625 110.84838867 7 110 C4.68154421 104.90051191 3.25291148 99.64281701 2 94.1875 C1.74899536 93.10758789 1.74899536 93.10758789 1.49291992 92.00585938 C-1.84238866 77.19639013 -4.1675769 62.04030512 -4.1328125 46.84765625 C-4.13376923 45.90748154 -4.13472595 44.96730682 -4.13571167 43.99864197 C-4.13638798 42.02293836 -4.1345723 40.04723246 -4.13037109 38.0715332 C-4.12502112 35.07432989 -4.1303318 32.07727681 -4.13671875 29.08007812 C-4.13605775 27.14843717 -4.13477615 25.21679632 -4.1328125 23.28515625 C-4.13483673 22.4025563 -4.13686096 21.51995636 -4.13894653 20.61061096 C-4.12278014 16.24555593 -3.9936193 11.89901656 -3.67919922 7.54467773 C-3.62238983 6.74416489 -3.56558044 5.94365204 -3.50704956 5.11888123 C-2.90464127 2.6015107 -1.96095588 1.63592275 0 0 Z " fill="#FE8A19" transform="translate(4,221)"/>
</svg>
