<?xml version="1.0" encoding="UTF-8"?>
<svg version="1.1" xmlns="http://www.w3.org/2000/svg" width="512" height="512">
<path d="M0 0 C0.63454102 0.31727051 1.26908203 0.63454102 1.92285156 0.96142578 C12.39758322 6.19879161 22.57934982 11.97451698 32.75585938 17.76391602 C40.55287301 22.19747431 48.39224109 26.55047257 56.25 30.875 C58.72140117 32.23559172 61.19275088 33.59627688 63.6640625 34.95703125 C64.27612549 35.29400528 64.88818848 35.63097931 65.51879883 35.97816467 C71.8961514 39.4907601 78.26155513 43.02477903 84.625 46.5625 C85.72706787 47.17504639 86.82913574 47.78759277 87.96459961 48.41870117 C93.61681545 51.5610271 99.26770543 54.70572733 104.91796875 57.8515625 C110.57557263 61.00085137 116.23733117 64.14256927 121.90136719 67.28027344 C124.71110932 68.83966704 127.51606075 70.40732741 130.3203125 71.9765625 C144.04735287 79.61025746 158.06923582 86.63032868 172.1360321 93.61079407 C173.59603131 94.33573538 175.05527854 95.06219323 176.51374817 95.79020691 C180.153716 97.6042261 183.80425032 99.38604093 187.48535156 101.11523438 C188.20872711 101.46108582 188.93210266 101.80693726 189.67739868 102.16326904 C191.03551576 102.8119542 192.39895489 103.44967235 193.76864624 104.07354736 C198.99038177 106.59129359 202.39193903 109.78387807 205 115 C205.13511782 117.48318592 205.21259384 119.93704307 205.23828125 122.421875 C205.246353 123.15948059 205.25442474 123.89708618 205.26274109 124.65704346 C205.27658051 126.22055716 205.28730331 127.78410106 205.29516602 129.34765625 C205.31233516 131.72715445 205.35621387 134.10524693 205.40039062 136.484375 C205.41052183 138.00519814 205.4190366 139.52603307 205.42578125 141.046875 C205.44328934 141.75334167 205.46079742 142.45980835 205.47883606 143.18768311 C205.45677453 148.26874579 204.17770162 151.08553943 201 155 C196.78083567 158.46909068 193.47820753 159.90714902 188 160 C181.92266049 158.66166892 176.47145484 155.88494892 171 153 C170.55269531 153.96421875 170.10539062 154.9284375 169.64453125 155.921875 C169.03450877 157.19822973 168.42379487 158.47425417 167.8125 159.75 C167.52052734 160.38421875 167.22855469 161.0184375 166.92773438 161.671875 C164.58556377 166.50732399 161.91540844 169.54229578 157 172 C151.44468752 172.5072965 146.58169764 172.76260422 141.5 170.3125 C134.1074726 163.47441215 134.1074726 163.47441215 133.88647461 158.38623047 C133.89171143 157.30744629 133.89694824 156.22866211 133.90234375 155.1171875 C133.90556641 153.95058594 133.90878906 152.78398437 133.91210938 151.58203125 C133.92048828 150.35871094 133.92886719 149.13539063 133.9375 147.875 C133.94201172 146.64394531 133.94652344 145.41289062 133.95117188 144.14453125 C133.9629867 141.09630608 133.97945972 138.04817686 134 135 C132.83803101 134.64252686 132.83803101 134.64252686 131.65258789 134.27783203 C126.85021687 132.59775651 122.22355688 130.58107253 117.55859375 128.5546875 C116.02494423 127.89201622 116.02494423 127.89201622 114.46031189 127.21595764 C111.11836631 125.77129039 107.77794259 124.32313872 104.4375 122.875 C102.10573435 121.86638006 99.77386494 120.85799996 97.44189453 119.84985352 C91.6651706 117.3518534 85.88960201 114.85119683 80.11456299 112.3493042 C75.78370278 110.47307055 71.4524441 108.59775805 67.12109375 106.72265625 C66.00973053 106.24143311 66.00973053 106.24143311 64.87591553 105.75048828 C61.27931992 104.19343589 57.68205805 102.63795213 54.08349609 101.08544922 C52.61425536 100.45150308 51.14501712 99.81755116 49.67578125 99.18359375 C48.93579895 98.86438965 48.19581665 98.54518555 47.43341064 98.21630859 C41.76079841 95.76682216 36.09664656 93.29826189 30.43389893 90.82606506 C25.9266144 88.86093785 21.41534662 86.90506664 16.90338135 84.95071411 C14.69167987 83.99032486 12.48164713 83.02608265 10.27337646 82.05783081 C7.1878315 80.70553059 4.09665883 79.36696709 1.00390625 78.03125 C0.08063034 77.62274307 -0.84264557 77.21423615 -1.79389954 76.79335022 C-8.17224155 73.93287826 -8.17224155 73.93287826 -15 74 C-18.06953056 77.03698894 -19.99390407 80.56593367 -21.99609375 84.3671875 C-22.82391357 85.92518066 -22.82391357 85.92518066 -23.66845703 87.51464844 C-24.25224121 88.62356445 -24.83602539 89.73248047 -25.4375 90.875 C-26.69205712 93.23284392 -27.94796857 95.58987997 -29.20703125 97.9453125 C-29.52460388 98.53997314 -29.84217651 99.13463379 -30.16937256 99.74731445 C-32.72057744 104.51069043 -35.34708373 109.22731826 -38.01904297 113.92382812 C-39.09401637 115.81557213 -40.15939586 117.71279856 -41.21533203 119.61523438 C-43.80661296 124.26629235 -46.47804276 128.76564677 -49.48046875 133.1640625 C-60.02617214 149.27833403 -59.32001097 164.42169182 -58 183 C-55.55218717 182.31277579 -53.12042835 181.59606749 -50.6875 180.859375 C-49.99720703 180.66907715 -49.30691406 180.4787793 -48.59570312 180.28271484 C-44.94967546 179.15103718 -43.23658545 178.35200327 -41.08129883 175.14526367 C-40.3324066 173.14004512 -39.64631911 171.11067223 -39.01171875 169.06640625 C-34.7466636 156.13950164 -21.04748884 149.78236347 -9.8125 143.875 C-1.43024116 139.40733841 6.87738271 134.83655413 15.125 130.125 C31.68509341 120.70007869 45.64935716 112.79928454 65.3125 116.6484375 C79.82253123 121.47137402 87.4426261 132.73551462 94.3125 145.625 C94.74554443 146.43678711 95.17858887 147.24857422 95.62475586 148.08496094 C101.06680042 158.59358868 102.83909056 169.5255543 100.3125 181.16796875 C94.81908511 197.39643189 83.0575956 205.34649634 68.375 213 C67.27542969 213.58394531 66.17585938 214.16789063 65.04296875 214.76953125 C62.36675916 216.1890859 59.68594171 217.5989738 57 219 C58.07378906 219.17015625 59.14757812 219.3403125 60.25390625 219.515625 C61.69022523 219.75970535 63.12641662 220.00453729 64.5625 220.25 C65.26697266 220.35957031 65.97144531 220.46914063 66.69726562 220.58203125 C70.46102218 221.24112226 73.42995329 222.08398455 76.7109375 224.078125 C81.28952047 226.75349652 84.8421521 226.8310818 90 226 C93.849246 224.11311471 96.4283481 221.59523386 99.375 218.5625 C106.73314585 211.00986571 114.3241979 207.95919447 124.875 207.6875 C138.8852846 207.95436256 146.30503907 214.54757056 156.37109375 223.6171875 C159.87235455 226.58948084 163.10376669 226.25491722 167.52734375 226.2421875 C170.59945254 225.94128585 172.44175275 224.65533646 175 223 C178.72732584 224.26887688 181.05156267 226.84719687 183.75 229.625 C184.54921875 230.44226563 185.3484375 231.25953125 186.171875 232.1015625 C186.77515625 232.72804688 187.3784375 233.35453125 188 234 C186.86280581 237.41158256 185.95657056 238.11854601 183 240 C182.34 240 181.68 240 181 240 C180.99465051 244.44848396 181.0284746 248.89448142 181.09765625 253.34228516 C181.11575566 254.85326301 181.12339574 256.36440558 181.12011719 257.87548828 C180.821887 266.44361039 180.821887 266.44361039 183.39355469 274.36230469 C185.14760296 276.22328572 185.14760296 276.22328572 188 278 C187.3125 279.875 187.3125 279.875 186 282 C184.35619011 282.7211874 182.68967412 283.39401025 181 284 C180.99372648 288.54292487 181.05339705 293.08268758 181.125 297.625 C181.12113281 299.55279297 181.12113281 299.55279297 181.1171875 301.51953125 C181.06464985 309.43926185 181.06464985 309.43926185 185.0546875 315.8984375 C186.02664063 316.59195312 186.99859375 317.28546875 188 318 C187.3125 319.875 187.3125 319.875 186 322 C184.35 322.66 182.7 323.32 181 324 C181 329.28 181 334.56 181 340 C38.44 340 -104.12 340 -251 340 C-251 334.72 -251 329.44 -251 324 C-252.65 323.34 -254.3 322.68 -256 322 C-257.3125 319.875 -257.3125 319.875 -258 318 C-257.02804687 317.30648438 -256.05609375 316.61296875 -255.0546875 315.8984375 C-250.89564384 311.73939384 -251.23365586 307.13912985 -251.1171875 301.51953125 C-251.11976563 300.23433594 -251.12234375 298.94914062 -251.125 297.625 C-251.104375 296.31660156 -251.08375 295.00820313 -251.0625 293.66015625 C-251.01548264 290.43946692 -250.99555204 287.2209618 -251 284 C-251.79792969 283.71382813 -252.59585938 283.42765625 -253.41796875 283.1328125 C-256 282 -256 282 -257.3125 279.875 C-257.539375 279.25625 -257.76625 278.6375 -258 278 C-257.02546875 277.34257812 -256.0509375 276.68515625 -255.046875 276.0078125 C-251.15334384 272.10281629 -251.24567937 267.65190937 -251.17419434 262.44903564 C-251.17789202 260.99769406 -251.19262613 259.54634326 -251.21777344 258.09521484 C-251.25004067 255.87219797 -251.21798621 253.65639183 -251.1796875 251.43359375 C-251.18365087 250.01560902 -251.19133519 248.59762876 -251.203125 247.1796875 C-251.20989258 245.89819824 -251.21666016 244.61670898 -251.22363281 243.29638672 C-251.70932056 239.71886956 -251.70932056 239.71886956 -255.04980469 237.55126953 C-256.02336914 237.03935059 -256.99693359 236.52743164 -258 236 C-256.92296139 233.48690992 -256.03584574 232.0314121 -253.95507812 230.20800781 C-251.50451296 227.44041148 -251.48563951 226.0736284 -251.46875 222.421875 C-251.46359375 221.34292969 -251.4584375 220.26398438 -251.453125 219.15234375 C-251.46859375 218.02957031 -251.4840625 216.90679687 -251.5 215.75 C-251.48453125 214.64269531 -251.4690625 213.53539062 -251.453125 212.39453125 C-251.48606177 205.46957624 -252.36326093 200.91691675 -256 195 C-241.60622498 185.80003789 -227.03270878 176.90853102 -212.41699219 168.06787109 C-207.39893602 165.03107946 -202.38582079 161.98621283 -197.375 158.9375 C-196.45001709 158.37474365 -195.52503418 157.8119873 -194.57202148 157.23217773 C-186.39248834 152.24991164 -178.2365541 147.22956235 -170.08862305 142.19580078 C-164.1829498 138.55278519 -158.25867113 134.94611838 -152.3046875 131.3828125 C-151.02035393 130.6118558 -149.73609223 129.84077935 -148.4519043 129.06958008 C-146.58920327 127.95100062 -144.72527617 126.83488772 -142.85610962 125.72714233 C-141.13328393 124.70609389 -139.41613922 123.67547857 -137.69921875 122.64453125 C-136.71783936 122.06034424 -135.73645996 121.47615723 -134.7253418 120.87426758 C-128.70569185 116.73444382 -125.0833342 111.43401229 -121.1875 105.3984375 C-120.62923019 104.54500763 -120.07096039 103.69157776 -119.49577332 102.81228638 C-118.28923634 100.96706038 -117.08527925 99.12014543 -115.88363647 97.27172852 C-112.66092134 92.31571341 -109.41801719 87.37294566 -106.17578125 82.4296875 C-105.50662186 81.40868958 -104.83746246 80.38769165 -104.14802551 79.33575439 C-96.92204566 68.32694656 -89.56560964 57.40721776 -82.1875 46.5 C-81.57898193 45.6002948 -80.97046387 44.7005896 -80.34350586 43.77362061 C-75.65146007 36.83729678 -75.65146007 36.83729678 -73.46759033 33.61325073 C-69.82458093 28.23200541 -66.21519418 22.83018115 -62.64038086 17.40332031 C-49.16810218 -2.33490134 -22.00067601 -11.47731743 0 0 Z " fill="#3BB0ED" transform="translate(291,124)"/>
<path d="M0 0 C0.63454102 0.31727051 1.26908203 0.63454102 1.92285156 0.96142578 C12.39758322 6.19879161 22.57934982 11.97451698 32.75585938 17.76391602 C40.55287301 22.19747431 48.39224109 26.55047257 56.25 30.875 C58.72140117 32.23559172 61.19275088 33.59627688 63.6640625 34.95703125 C64.27612549 35.29400528 64.88818848 35.63097931 65.51879883 35.97816467 C71.8961514 39.4907601 78.26155513 43.02477903 84.625 46.5625 C85.72706787 47.17504639 86.82913574 47.78759277 87.96459961 48.41870117 C93.61681545 51.5610271 99.26770543 54.70572733 104.91796875 57.8515625 C110.57557263 61.00085137 116.23733117 64.14256927 121.90136719 67.28027344 C124.71110932 68.83966704 127.51606075 70.40732741 130.3203125 71.9765625 C144.04735287 79.61025746 158.06923582 86.63032868 172.1360321 93.61079407 C173.59603131 94.33573538 175.05527854 95.06219323 176.51374817 95.79020691 C180.153716 97.6042261 183.80425032 99.38604093 187.48535156 101.11523438 C188.20872711 101.46108582 188.93210266 101.80693726 189.67739868 102.16326904 C191.03551576 102.8119542 192.39895489 103.44967235 193.76864624 104.07354736 C198.99038177 106.59129359 202.39193903 109.78387807 205 115 C205.13511782 117.48318592 205.21259384 119.93704307 205.23828125 122.421875 C205.246353 123.15948059 205.25442474 123.89708618 205.26274109 124.65704346 C205.27658051 126.22055716 205.28730331 127.78410106 205.29516602 129.34765625 C205.31233516 131.72715445 205.35621387 134.10524693 205.40039062 136.484375 C205.41052183 138.00519814 205.4190366 139.52603307 205.42578125 141.046875 C205.44328934 141.75334167 205.46079742 142.45980835 205.47883606 143.18768311 C205.45677453 148.26874579 204.17770162 151.08553943 201 155 C196.78083567 158.46909068 193.47820753 159.90714902 188 160 C181.92266049 158.66166892 176.47145484 155.88494892 171 153 C170.55269531 153.96421875 170.10539062 154.9284375 169.64453125 155.921875 C169.03450877 157.19822973 168.42379487 158.47425417 167.8125 159.75 C167.52052734 160.38421875 167.22855469 161.0184375 166.92773438 161.671875 C164.58556377 166.50732399 161.91540844 169.54229578 157 172 C151.44468752 172.5072965 146.58169764 172.76260422 141.5 170.3125 C134.1074726 163.47441215 134.1074726 163.47441215 133.88647461 158.38623047 C133.89171143 157.30744629 133.89694824 156.22866211 133.90234375 155.1171875 C133.90556641 153.95058594 133.90878906 152.78398437 133.91210938 151.58203125 C133.92048828 150.35871094 133.92886719 149.13539063 133.9375 147.875 C133.94201172 146.64394531 133.94652344 145.41289062 133.95117188 144.14453125 C133.9629867 141.09630608 133.97945972 138.04817686 134 135 C132.83803101 134.64252686 132.83803101 134.64252686 131.65258789 134.27783203 C126.85021687 132.59775651 122.22355688 130.58107253 117.55859375 128.5546875 C116.02494423 127.89201622 116.02494423 127.89201622 114.46031189 127.21595764 C111.11836631 125.77129039 107.77794259 124.32313872 104.4375 122.875 C102.10573435 121.86638006 99.77386494 120.85799996 97.44189453 119.84985352 C91.6651706 117.3518534 85.88960201 114.85119683 80.11456299 112.3493042 C75.78370278 110.47307055 71.4524441 108.59775805 67.12109375 106.72265625 C66.00973053 106.24143311 66.00973053 106.24143311 64.87591553 105.75048828 C61.27931992 104.19343589 57.68205805 102.63795213 54.08349609 101.08544922 C52.61425536 100.45150308 51.14501712 99.81755116 49.67578125 99.18359375 C48.93579895 98.86438965 48.19581665 98.54518555 47.43341064 98.21630859 C41.76079841 95.76682216 36.09664656 93.29826189 30.43389893 90.82606506 C25.9266144 88.86093785 21.41534662 86.90506664 16.90338135 84.95071411 C14.69167987 83.99032486 12.48164713 83.02608265 10.27337646 82.05783081 C7.1878315 80.70553059 4.09665883 79.36696709 1.00390625 78.03125 C0.08063034 77.62274307 -0.84264557 77.21423615 -1.79389954 76.79335022 C-8.17224155 73.93287826 -8.17224155 73.93287826 -15 74 C-18.06953056 77.03698894 -19.99390407 80.56593367 -21.99609375 84.3671875 C-22.82391357 85.92518066 -22.82391357 85.92518066 -23.66845703 87.51464844 C-24.25224121 88.62356445 -24.83602539 89.73248047 -25.4375 90.875 C-26.69205712 93.23284392 -27.94796857 95.58987997 -29.20703125 97.9453125 C-29.52460388 98.53997314 -29.84217651 99.13463379 -30.16937256 99.74731445 C-32.72057744 104.51069043 -35.34708373 109.22731826 -38.01904297 113.92382812 C-39.09401637 115.81557213 -40.15939586 117.71279856 -41.21533203 119.61523438 C-43.80661296 124.26629235 -46.47804276 128.76564677 -49.48046875 133.1640625 C-60.02617214 149.27833403 -59.32001097 164.42169182 -58 183 C-55.55218717 182.31277579 -53.12042835 181.59606749 -50.6875 180.859375 C-49.99720703 180.66907715 -49.30691406 180.4787793 -48.59570312 180.28271484 C-44.94967546 179.15103718 -43.23658545 178.35200327 -41.08129883 175.14526367 C-40.3324066 173.14004512 -39.64631911 171.11067223 -39.01171875 169.06640625 C-34.7466636 156.13950164 -21.04748884 149.78236347 -9.8125 143.875 C-1.43024116 139.40733841 6.87738271 134.83655413 15.125 130.125 C31.68509341 120.70007869 45.64935716 112.79928454 65.3125 116.6484375 C79.82253123 121.47137402 87.4426261 132.73551462 94.3125 145.625 C94.74554443 146.43678711 95.17858887 147.24857422 95.62475586 148.08496094 C101.06680042 158.59358868 102.83909056 169.5255543 100.3125 181.16796875 C94.80151826 197.44832729 82.97829144 205.39629347 68.25 213.0625 C67.09330811 213.67536865 65.93661621 214.2882373 64.74487305 214.91967773 C58.11198107 218.42082476 51.43104247 221.79625274 44.69140625 225.0859375 C38.43483789 228.24764545 32.39624042 231.85239126 26.34301758 235.38305664 C15.94338418 241.37355439 7.23885532 245.50679375 -5 244 C-8.32045742 243.09349475 -11.06804426 241.78927337 -14 240 C-14.69867188 239.57589844 -15.39734375 239.15179688 -16.1171875 238.71484375 C-24.8480306 232.80093305 -29.35403956 222.90273247 -34.3125 213.875 C-34.84939453 212.92496094 -35.38628906 211.97492188 -35.93945312 210.99609375 C-38.73010587 205.92153983 -40.70190272 201.81692537 -41 196 C-41.69561035 196.24758057 -42.3912207 196.49516113 -43.10791016 196.75024414 C-46.27543742 197.86861396 -49.44994424 198.96569585 -52.625 200.0625 C-53.71941406 200.45244141 -54.81382812 200.84238281 -55.94140625 201.24414062 C-57.53662109 201.79038086 -57.53662109 201.79038086 -59.1640625 202.34765625 C-60.13811035 202.68804932 -61.1121582 203.02844238 -62.11572266 203.37915039 C-65.54882759 204.11813683 -67.64762741 204.06403364 -71 203 C-73.68332535 200.83621031 -74.79337021 199.09111437 -75.43710327 195.69186401 C-75.71635546 192.75695926 -75.84157059 189.8495823 -75.91796875 186.90234375 C-75.95391144 185.80822678 -75.98985413 184.7141098 -76.02688599 183.58683777 C-76.119018 180.03649043 -76.16282605 176.48893715 -76.1875 172.9375 C-76.19735931 171.73260925 -76.20721863 170.52771851 -76.21737671 169.28631592 C-76.23951927 149.3416944 -73.8067796 136.12105367 -62.02197266 119.86035156 C-58.79140306 115.2902775 -56.18656675 110.40190952 -53.5 105.5 C-52.44551533 103.65538889 -51.38950624 101.81164845 -50.33203125 99.96875 C-47.83577473 95.55767017 -45.46514889 91.09448797 -43.13671875 86.59375 C-42.47279118 85.31959114 -41.80872895 84.04550244 -41.14453125 82.77148438 C-39.86912473 80.323547 -38.61631853 77.8657495 -37.375 75.40039062 C-33.08301787 67.15277376 -28.70951537 61.70361068 -20.625 57.0625 C-11.50054711 54.3880914 -4.54188592 56.46179872 3.875 60.3125 C6.18740429 61.32964471 8.49991233 62.34655356 10.8125 63.36328125 C12.11473839 63.94317405 13.41681536 64.52342947 14.71875 65.10400391 C19.44250671 67.20383545 24.18886029 69.25016075 28.9375 71.29296875 C29.81567383 71.6708403 30.69384766 72.04871185 31.59863281 72.43803406 C33.42413178 73.22348019 35.249653 74.0088746 37.07519531 74.79421997 C41.82334191 76.83908416 46.56784121 78.89237171 51.3125 80.9453125 C60.0130767 84.70910504 68.71546411 88.46867829 77.41921997 92.22511292 C82.08307562 94.23799894 86.74671747 96.2513753 91.40966797 98.26635742 C93.20800742 99.04345795 95.00634726 99.82055757 96.8046875 100.59765625 C97.67423065 100.97341293 98.5437738 101.34916962 99.43966675 101.73631287 C104.2431792 103.81137599 109.04857429 105.88196533 113.85647583 107.94683838 C116.60809809 109.12898792 119.3586159 110.31369221 122.10894775 111.49884033 C123.91125424 112.27431552 125.71510992 113.04618723 127.51904297 113.81787109 C148.14124222 122.71186333 148.14124222 122.71186333 151 127 C151.31884766 129.72729492 151.31884766 129.72729492 151.4140625 132.98046875 C151.45273437 134.14384766 151.49140625 135.30722656 151.53125 136.50585938 C151.57765625 138.32827148 151.57765625 138.32827148 151.625 140.1875 C151.66367187 141.41404297 151.70234375 142.64058594 151.7421875 143.90429688 C151.83656103 146.93604656 151.92214549 149.96778841 152 153 C152.16081055 152.47043701 152.32162109 151.94087402 152.48730469 151.39526367 C153.22719129 148.98799353 153.98830025 146.5879528 154.75 144.1875 C155.00265625 143.35412109 155.2553125 142.52074219 155.515625 141.66210938 C157.45876124 135.61409782 157.45876124 135.61409782 159.828125 132.92578125 C162.95934326 131.59107131 164.57723622 131.49642096 168 132 C171.57882742 133.44281222 174.96460099 135.19993205 178.375 137 C179.30183594 137.47695313 180.22867187 137.95390625 181.18359375 138.4453125 C183.461331 139.61940386 185.73144491 140.80826374 188 142 C188 135.07 188 128.14 188 121 C185.45430298 119.73893433 185.45430298 119.73893433 182.85717773 118.45239258 C177.14302509 115.6198638 171.43188549 112.78132937 165.72259426 109.93901539 C162.27330964 108.22208102 158.82299087 106.50730933 155.36987305 104.7980957 C139.10352922 96.74442422 123.07948696 88.45129466 107.36087036 79.35836792 C104.04832737 77.45243856 100.70857091 75.59836609 97.359375 73.7578125 C96.26415527 73.15509521 95.16893555 72.55237793 94.04052734 71.93139648 C92.95465332 71.33528564 91.8687793 70.7391748 90.75 70.125 C88.27824738 68.76504628 85.80708201 67.40402708 83.3359375 66.04296875 C82.72299835 65.70550125 82.1100592 65.36803375 81.47854614 65.02033997 C71.75046494 59.66236383 62.0485419 54.25713459 52.34277344 48.85888672 C48.98156885 46.9897506 45.61980454 45.12162558 42.2578125 43.25390625 C41.14156494 42.63370605 40.02531738 42.01350586 38.87524414 41.37451172 C36.63785118 40.13192921 34.40006257 38.89005883 32.16186523 37.64892578 C26.93398747 34.74866111 21.71044055 31.84141457 16.50241089 28.90567017 C14.06812256 27.53411174 11.63132509 26.16704544 9.19433594 24.80029297 C7.4955966 23.84516521 5.80046428 22.88363096 4.10546875 21.921875 C-7.21912972 15.57619482 -16.69762982 10.7724605 -29.890625 13.625 C-44.11810104 18.07605396 -50.80543681 30.07714582 -58.41702271 41.95294189 C-60.92757804 45.8695637 -63.46697108 49.76716969 -66.00538635 53.66577148 C-67.32937213 55.69922641 -68.65197949 57.73357944 -69.97325134 59.76879883 C-77.04059576 70.64148743 -84.29043031 81.38860043 -91.5625 92.125 C-93.31543785 94.71488185 -95.06815957 97.30490735 -96.81985474 99.89562988 C-97.93139462 101.53726772 -99.04534075 103.17727921 -100.16183472 104.81555176 C-102.89824459 108.83993352 -105.57768036 112.88730637 -108.16943359 117.0065918 C-117.73332466 132.10035575 -117.73332466 132.10035575 -126.5 136.5625 C-128.33010825 137.59775511 -130.15949662 138.63428351 -131.98828125 139.671875 C-133.43968506 140.46754883 -133.43968506 140.46754883 -134.92041016 141.27929688 C-140.00188014 144.11853902 -144.94729249 147.18183505 -149.90869141 150.22409058 C-152.29595028 151.68479583 -154.68989061 153.13435131 -157.08389282 154.58396912 C-164.41075639 159.02120203 -171.70968567 163.50295219 -179 168 C-188.66880363 173.96422462 -198.36732138 179.87717237 -208.08526611 185.76080322 C-216.90736644 191.10272946 -225.69553921 196.49638343 -234.4309082 201.97924805 C-238.5386597 204.54326572 -242.620935 206.93015256 -247 209 C-248.3172344 207.23268551 -249.62863588 205.46102239 -250.9375 203.6875 C-251.66839844 202.70136719 -252.39929688 201.71523438 -253.15234375 200.69921875 C-255 198 -255 198 -256 195 C-241.60622498 185.80003789 -227.03270878 176.90853102 -212.41699219 168.06787109 C-207.39893602 165.03107946 -202.38582079 161.98621283 -197.375 158.9375 C-196.45001709 158.37474365 -195.52503418 157.8119873 -194.57202148 157.23217773 C-186.39248834 152.24991164 -178.2365541 147.22956235 -170.08862305 142.19580078 C-164.1829498 138.55278519 -158.25867113 134.94611838 -152.3046875 131.3828125 C-151.02035393 130.6118558 -149.73609223 129.84077935 -148.4519043 129.06958008 C-146.58920327 127.95100062 -144.72527617 126.83488772 -142.85610962 125.72714233 C-141.13328393 124.70609389 -139.41613922 123.67547857 -137.69921875 122.64453125 C-136.71783936 122.06034424 -135.73645996 121.47615723 -134.7253418 120.87426758 C-128.70569185 116.73444382 -125.0833342 111.43401229 -121.1875 105.3984375 C-120.62923019 104.54500763 -120.07096039 103.69157776 -119.49577332 102.81228638 C-118.28923634 100.96706038 -117.08527925 99.12014543 -115.88363647 97.27172852 C-112.66092134 92.31571341 -109.41801719 87.37294566 -106.17578125 82.4296875 C-105.50662186 81.40868958 -104.83746246 80.38769165 -104.14802551 79.33575439 C-96.92204566 68.32694656 -89.56560964 57.40721776 -82.1875 46.5 C-81.57898193 45.6002948 -80.97046387 44.7005896 -80.34350586 43.77362061 C-75.65146007 36.83729678 -75.65146007 36.83729678 -73.46759033 33.61325073 C-69.82458093 28.23200541 -66.21519418 22.83018115 -62.64038086 17.40332031 C-49.16810218 -2.33490134 -22.00067601 -11.47731743 0 0 Z " fill="#010101" transform="translate(291,124)"/>
<path d="M0 0 C1.26886596 0.7081287 2.53807908 1.41563564 3.80761719 2.12255859 C6.41212181 3.57394999 9.01469781 5.02871023 11.61572266 6.48632812 C16.34801064 9.1370193 21.09316348 11.76426935 25.83764648 14.39306641 C36.58664278 20.35158735 47.31269345 26.35077879 58.03320312 32.36035156 C67.87108501 37.87290449 77.7230958 43.35959346 87.58984375 48.8203125 C91.97214124 51.24771619 96.3381971 53.70053933 100.69140625 56.1796875 C119.97380213 67.08293693 139.77961044 76.91428229 159.62036133 86.74902344 C160.78700821 87.32775711 161.95365509 87.90649078 163.15565491 88.50276184 C165.37997108 89.60522688 167.60531031 90.70563075 169.83177185 91.80375671 C170.82024612 92.29318253 171.8087204 92.78260834 172.82714844 93.28686523 C173.69676208 93.71603745 174.56637573 94.14520966 175.46234131 94.58738708 C177.4375 95.625 177.4375 95.625 178.4375 96.625 C178.52450342 98.25972882 178.54451063 99.89814055 178.53515625 101.53515625 C178.53193359 102.52451172 178.52871094 103.51386719 178.52539062 104.53320312 C178.51701172 105.57412109 178.50863281 106.61503906 178.5 107.6875 C178.49548828 108.73228516 178.49097656 109.77707031 178.48632812 110.85351562 C178.47449913 113.4440666 178.45801689 116.03450559 178.4375 118.625 C175.31233453 117.14618275 172.1873959 115.66688678 169.0625 114.1875 C167.72832031 113.55618164 167.72832031 113.55618164 166.3671875 112.91210938 C165.51640625 112.50927734 164.665625 112.10644531 163.7890625 111.69140625 C162.61077881 111.1336853 162.61077881 111.1336853 161.40869141 110.56469727 C160.078871 109.93075142 158.75516752 109.28383376 157.4375 108.625 C154.057738 108.25763457 152.18182254 108.06962088 149.40625 110.140625 C146.79641745 113.43398512 145.90985783 116.67709031 144.8125 120.6875 C142.66242224 128.28761664 142.66242224 128.28761664 140.4375 131.625 C140.4281543 130.76745117 140.41880859 129.90990234 140.40917969 129.02636719 C140.36508709 125.83527321 140.30343944 122.64513244 140.22998047 119.45458984 C140.20180901 118.07548349 140.18057528 116.69621682 140.16650391 115.31689453 C140.14502455 113.33077051 140.09626868 111.34500091 140.046875 109.359375 C140.02592773 108.16538086 140.00498047 106.97138672 139.98339844 105.74121094 C139.32058252 101.95758734 138.48014604 100.91324479 135.4375 98.625 C132.59520347 97.05410898 132.59520347 97.05410898 129.33203125 95.69140625 C128.71754623 95.42177063 128.10306122 95.15213501 127.46995544 94.87432861 C125.40056346 93.9693935 123.32543669 93.07847533 121.25 92.1875 C119.74872269 91.53478961 118.24775522 90.88136619 116.74707031 90.22729492 C111.65049186 88.01109526 106.54454623 85.81694767 101.4375 83.625 C100.51346375 83.22804932 99.58942749 82.83109863 98.63739014 82.42211914 C89.57499209 78.52931189 80.50979407 74.64306947 71.44018555 70.76708984 C54.92068618 63.70543526 38.43794729 56.56163449 21.97363281 49.37231445 C10.49951642 44.36574923 -0.99991362 39.42430606 -12.5625 34.625 C-13.51471436 34.22941895 -14.46692871 33.83383789 -15.44799805 33.42626953 C-20.31631537 31.58146899 -25.37360016 31.88584976 -30.2578125 33.53515625 C-40.35733581 38.22314394 -44.07757178 46.02799628 -49.0625 55.5625 C-50.31178871 57.91907171 -51.56261777 60.27473466 -52.81640625 62.62890625 C-53.28905663 63.51811768 -53.28905663 63.51811768 -53.77125549 64.42529297 C-56.24877316 69.0728668 -58.81033425 73.6666465 -61.42700195 78.23706055 C-62.48950306 80.10332239 -63.53588004 81.97884303 -64.56713867 83.86254883 C-67.36479094 88.94845054 -70.30296506 93.72003359 -73.7109375 98.421875 C-84.79638674 114.70736562 -85.9315125 129.08384923 -85.8125 148.5625 C-85.80844147 149.7612677 -85.80438293 150.9600354 -85.80020142 152.19512939 C-85.76795447 155.6417468 -85.68684074 159.0823534 -85.578125 162.52734375 C-85.5562059 163.57203323 -85.5342868 164.61672272 -85.51170349 165.69306946 C-85.27869487 170.4711209 -85.09871164 172.90917552 -82.17041016 176.81835938 C-79.71557031 178.88450717 -79.71557031 178.88450717 -76.8203125 178.62890625 C-71.84532941 177.09584791 -66.92824581 175.4417051 -62.01953125 173.70898438 C-61.24738281 173.44279297 -60.47523438 173.17660156 -59.6796875 172.90234375 C-58.98472168 172.65734131 -58.28975586 172.41233887 -57.57373047 172.15991211 C-55.5625 171.625 -55.5625 171.625 -51.5625 171.625 C-51.37816406 172.2334375 -51.19382813 172.841875 -51.00390625 173.46875 C-48.6433076 180.60300369 -45.35328483 186.86613396 -41.56079102 193.31640625 C-38.5625 198.4409629 -38.5625 198.4409629 -38.5625 200.625 C-39.28695312 200.59019531 -40.01140625 200.55539062 -40.7578125 200.51953125 C-46.70941709 200.35288632 -50.24418427 200.77126961 -55.5625 203.625 C-59.07540182 202.40815978 -61.26282887 200.13466017 -63.8125 197.5 C-64.51890625 196.77554688 -65.2253125 196.05109375 -65.953125 195.3046875 C-66.74976563 194.47324219 -66.74976563 194.47324219 -67.5625 193.625 C-67.975 194.01171875 -68.3875 194.3984375 -68.8125 194.796875 C-74.05650433 199.52584319 -79.0156437 203.12719561 -86.125 204.125 C-92.48063141 203.20054452 -96.05590929 200.27533677 -100.3125 195.75 C-107.10101999 188.65652696 -115.40118271 184.55780347 -125.1875 184.3125 C-137.23877094 184.44444822 -145.14164188 190.63552288 -153.75 198.375 C-157.75860252 201.90787343 -160.57108911 203.40373212 -165.9375 204 C-172.42976124 203.32838677 -176.00521304 200.3292338 -180.3125 195.75 C-187.31946321 188.44254325 -195.6776915 184.59517926 -205.75 184.3125 C-217.45667609 184.45411302 -225.41376581 190.8801801 -233.75 198.375 C-237.78568297 201.93174005 -240.57497171 203.44431561 -246 203.9375 C-249.5625 203.625 -249.5625 203.625 -252.625 202 C-256.00435749 200.00718661 -256.00435749 200.00718661 -261.5625 202.625 C-261.5625 195.035 -261.5625 187.445 -261.5625 179.625 C-259.9125 180.945 -258.2625 182.265 -256.5625 183.625 C-248.47670452 178.71784503 -240.39175295 173.80930276 -232.30761719 168.89941406 C-229.97773307 167.48438026 -227.64763832 166.06969576 -225.31738281 164.65527344 C-214.45260067 158.05993648 -203.61258734 151.42838432 -192.81542969 144.72290039 C-186.12088794 140.57270742 -179.39488742 136.47549797 -172.65856934 132.39358521 C-170.88159225 131.3164958 -169.10523098 130.23839868 -167.32910156 129.15991211 C-166.74191345 128.80337051 -166.15472534 128.44682892 -165.54974365 128.07948303 C-164.35884581 127.35632151 -163.16796858 126.63312603 -161.97711182 125.90989685 C-158.93928223 124.06555933 -155.89984325 122.22396142 -152.85742188 120.38720703 C-149.84681629 118.56941216 -146.84052954 116.74466178 -143.83700562 114.91519165 C-142.1688368 113.90163465 -140.49621573 112.89541688 -138.82348633 111.8894043 C-137.8105249 111.27105713 -136.79756348 110.65270996 -135.75390625 110.015625 C-134.86904541 109.47969727 -133.98418457 108.94376953 -133.07250977 108.39160156 C-127.18816784 104.25006881 -123.58963432 98.97194898 -119.75 93.0234375 C-119.19182083 92.17014359 -118.63364166 91.31684967 -118.05854797 90.43769836 C-116.85210327 88.59260923 -115.64823792 86.74583148 -114.44668579 84.89755249 C-111.22121527 79.93733562 -107.97548778 74.99041042 -104.73046875 70.04296875 C-104.06089645 69.02135147 -103.39132416 67.99973419 -102.70146179 66.94715881 C-95.51969135 56.00568149 -88.2085781 45.15259785 -80.875 34.3125 C-79.97503296 32.98215729 -79.97503296 32.98215729 -79.05688477 31.62493896 C-78.47156982 30.75983704 -77.88625488 29.89473511 -77.28320312 29.00341797 C-76.71169022 28.15861374 -76.14017731 27.31380951 -75.55134583 26.44340515 C-74.44163434 24.80375976 -73.33121195 23.16459525 -72.22001648 21.5259552 C-69.68008263 17.77657062 -67.15537376 14.01892475 -64.66918945 10.23364258 C-63.99191048 9.20512932 -63.99191048 9.20512932 -63.3009491 8.15583801 C-62.47307184 6.89569096 -61.64898307 5.63304176 -60.82978821 4.36723328 C-44.37797088 -20.65997304 -21.82165613 -12.28655718 0 0 Z " fill="#FCBE92" transform="translate(301.5625,148.375)"/>
<path d="M0 0 C2.11169 1.6699787 3.95133169 3.43223602 5.81640625 5.37109375 C9.64083546 9.34498341 12.93827896 11.39962355 18.50390625 12.12109375 C26.40132109 11.16795748 30.72686566 7.26934188 36.0546875 1.6484375 C39.34754985 -1.47078992 43.04159558 -3.41515251 47.12890625 -5.31640625 C48.05703125 -5.74953125 48.98515625 -6.18265625 49.94140625 -6.62890625 C59.90702435 -8.77835329 68.61034856 -7.45012576 77.2109375 -1.99609375 C81.82146861 1.33221865 85.98720177 5.18024003 90.1484375 9.046875 C93.88517277 12.13502505 97.44890133 12.06720071 102.12890625 11.68359375 C108.1075251 9.62807646 112.52358029 5.90514255 117.12890625 1.68359375 C120.42890625 4.98359375 123.72890625 8.28359375 127.12890625 11.68359375 C129.60390625 10.69359375 129.60390625 10.69359375 132.12890625 9.68359375 C134.94118247 8.74616834 136.71637469 8.54888531 139.62890625 8.55859375 C140.40234375 8.55601562 141.17578125 8.5534375 141.97265625 8.55078125 C144.12890625 8.68359375 144.12890625 8.68359375 147.12890625 9.68359375 C148.3828125 11.50390625 148.3828125 11.50390625 149.69140625 13.80859375 C154.26274221 20.95629362 160.96754572 25.47754071 169.12890625 27.68359375 C172.21656853 28.07053487 172.21656853 28.07053487 175.37890625 28.05859375 C176.4153125 28.08695312 177.45171875 28.1153125 178.51953125 28.14453125 C188.8507779 26.82517291 197.99696098 20.63794172 206.94140625 15.62109375 C208.25035995 14.89335638 209.55960315 14.16613948 210.86914062 13.43945312 C217.42411029 9.82218058 217.42411029 9.82218058 223.84765625 5.98022461 C229.07981411 3.00633865 236.30925445 4.12422963 242.0234375 5.2578125 C245.59741319 6.27052825 248.53960257 7.28581377 251.62890625 9.37109375 C255.66900515 11.49214567 259.67074494 11.31636503 264.12890625 10.68359375 C267.97815225 8.79670846 270.55725435 6.27882761 273.50390625 3.24609375 C280.8620521 -4.30654054 288.45310415 -7.35721178 299.00390625 -7.62890625 C313.01419085 -7.36204369 320.43394532 -0.76883569 330.5 8.30078125 C334.0012608 11.27307459 337.23267294 10.93851097 341.65625 10.92578125 C344.72835879 10.6248796 346.570659 9.33893021 349.12890625 7.68359375 C352.85623209 8.95247063 355.18046892 11.53079062 357.87890625 14.30859375 C358.678125 15.12585938 359.47734375 15.943125 360.30078125 16.78515625 C360.9040625 17.41164063 361.50734375 18.038125 362.12890625 18.68359375 C360.99171206 22.09517631 360.08547681 22.80213976 357.12890625 24.68359375 C356.46890625 24.68359375 355.80890625 24.68359375 355.12890625 24.68359375 C355.12890625 35.24359375 355.12890625 45.80359375 355.12890625 56.68359375 C353.80890625 55.69359375 352.48890625 54.70359375 351.12890625 53.68359375 C348.47645023 54.34456161 348.47645023 54.34456161 346.12890625 55.68359375 C342.41037247 57.54286064 338.18741709 57.11708794 334.12890625 56.68359375 C330.07593557 54.73816783 327.52479412 52.03995331 324.50390625 48.80859375 C317.83506644 41.90756996 308.57819667 37.58611918 299.00390625 37.37109375 C288.39282926 37.47708675 280.68384574 42.25335698 273.21484375 49.5546875 C272.0517676 50.74498459 270.90151466 51.9480643 269.76953125 53.16796875 C265.72672693 56.90274988 261.9001875 57.12823273 256.58203125 56.98828125 C251.07994519 56.30490113 248.09398141 52.6487971 244.50390625 48.80859375 C237.83506644 41.90756996 228.57819667 37.58611918 219.00390625 37.37109375 C208.39282926 37.47708675 200.68384574 42.25335698 193.21484375 49.5546875 C192.0517676 50.74498459 190.90151466 51.9480643 189.76953125 53.16796875 C185.72672693 56.90274988 181.9001875 57.12823273 176.58203125 56.98828125 C171.07994519 56.30490113 168.09398141 52.6487971 164.50390625 48.80859375 C157.83506644 41.90756996 148.57819667 37.58611918 139.00390625 37.37109375 C128.39282926 37.47708675 120.68384574 42.25335698 113.21484375 49.5546875 C112.0517676 50.74498459 110.90151466 51.9480643 109.76953125 53.16796875 C105.72672693 56.90274988 101.9001875 57.12823273 96.58203125 56.98828125 C91.07994519 56.30490113 88.09398141 52.6487971 84.50390625 48.80859375 C77.83506644 41.90756996 68.57819667 37.58611918 59.00390625 37.37109375 C48.39282926 37.47708675 40.68384574 42.25335698 33.21484375 49.5546875 C32.0517676 50.74498459 30.90151466 51.9480643 29.76953125 53.16796875 C25.72713601 56.90237197 21.90287031 57.12452697 16.5859375 56.9921875 C11.30418294 56.32881928 8.28661062 52.88200072 4.75390625 49.24609375 C-2.51884675 41.81419955 -11.31909782 37.80186114 -21.74609375 37.18359375 C-32.95536301 37.6564848 -40.58898431 43.59979476 -48.1796875 51.16015625 C-53.2661872 55.92921112 -56.66430021 57.15845829 -63.50390625 56.99609375 C-66.47636622 56.60368979 -68.38206787 55.29413991 -70.87109375 53.68359375 C-73.08843489 54.33379295 -73.08843489 54.33379295 -74.87109375 55.68359375 C-75.86109375 56.17859375 -75.86109375 56.17859375 -76.87109375 56.68359375 C-76.86996582 55.73516602 -76.86883789 54.78673828 -76.86767578 53.80957031 C-76.87761464 50.28257264 -76.91419336 46.75792621 -76.96875 43.23144531 C-76.98689288 41.70679529 -76.99448154 40.18198102 -76.99121094 38.65722656 C-76.98834832 36.46160271 -77.02370546 34.26937181 -77.06640625 32.07421875 C-77.07687988 30.75454102 -77.08735352 29.43486328 -77.09814453 28.07519531 C-77.56511281 24.41074166 -77.56511281 24.41074166 -80.92138672 22.22167969 C-81.89479004 21.71411133 -82.86819336 21.20654297 -83.87109375 20.68359375 C-82.36759998 17.01572982 -80.23380583 14.99448982 -77.24609375 12.43359375 C-76.42882812 11.7271875 -75.6115625 11.02078125 -74.76953125 10.29296875 C-74.14304687 9.761875 -73.5165625 9.23078125 -72.87109375 8.68359375 C-72.10796875 8.99296875 -71.34484375 9.30234375 -70.55859375 9.62109375 C-65.54030131 11.60506983 -61.25989563 12.74767754 -55.91796875 11.0703125 C-51.86920527 9.26112095 -49.08730586 7.0350993 -46.05859375 3.80859375 C-32.95666122 -10.0716714 -15.16287902 -10.57445998 0 0 Z " fill="#3BB1ED" transform="translate(116.87109375,339.31640625)"/>
<path d="M0 0 C4.05601529 2.1960314 6.90242672 5.21601108 10.0546875 8.53515625 C16.20799029 14.55677357 23.18674487 17.53335147 31.75 17.875 C42.72653558 17.68410373 51.50512133 13.2225963 59.0625 5.4375 C63.19152588 1.23012448 66.46657135 -1.16349073 72.4375 -1.9375 C80.31720977 -0.98650054 84.72602011 2.92438294 90.0546875 8.53515625 C96.20508474 14.5539302 103.56653666 17.75384539 112.1875 17.9375 C123.2881292 17.71018336 130.98803091 13.31889791 138.80859375 5.68359375 C143.06761915 1.55743223 146.20821981 -1.22016861 152.25 -1.8125 C160.26127165 -1.15583839 164.68271533 2.87878555 170.0546875 8.53515625 C176.20508474 14.5539302 183.56653666 17.75384539 192.1875 17.9375 C203.2881292 17.71018336 210.98803091 13.31889791 218.80859375 5.68359375 C223.06761915 1.55743223 226.20821981 -1.22016861 232.25 -1.8125 C240.28323753 -1.15403791 244.61435817 2.87261831 249.9921875 8.53515625 C257.12628104 15.30581484 266.4048278 18.10628507 276.1015625 17.8671875 C285.42648451 16.71079875 292.21540143 12.12060216 298.80859375 5.68359375 C303.06761915 1.55743223 306.20821981 -1.22016861 312.25 -1.8125 C320.70454947 -1.11950414 325.09433955 3.36096732 330.7578125 9.30859375 C338.19090428 16.37633017 345.72283827 17.77921881 355.64453125 17.734375 C360.48241572 17.40263435 364.50786602 16.13151068 369.0625 14.5 C369.0625 19.78 369.0625 25.06 369.0625 30.5 C226.5025 30.5 83.9425 30.5 -62.9375 30.5 C-62.9375 25.22 -62.9375 19.94 -62.9375 14.5 C-61.720625 14.995 -60.50375 15.49 -59.25 16 C-50.38592103 18.9128813 -41.53109219 18.54702826 -33.07421875 14.625 C-28.29155739 12.10688945 -24.68341453 9.3035665 -20.9375 5.4375 C-14.76490186 -0.85222524 -8.54780577 -3.76371096 0 0 Z " fill="#3BB1EE" transform="translate(102.9375,433.5)"/>
<path d="M0 0 C2.26008969 1.72715977 4.39747138 3.52816294 6.51953125 5.421875 C7.63908203 6.39833984 7.63908203 6.39833984 8.78125 7.39453125 C10.15959829 8.59965803 11.53041525 9.81349978 12.890625 11.0390625 C16.36649061 13.98979733 19.59262199 13.76080194 23.99609375 13.69140625 C29.56779797 13.09628614 32.68130554 9.29115097 36.39453125 5.484375 C43.21944179 -1.50985584 50.67453135 -5.80323152 60.64453125 -6.015625 C71.74516045 -5.78830836 79.44506216 -1.39702291 87.265625 6.23828125 C92.87848936 11.67604759 96.23260567 13.81375348 103.99609375 13.69140625 C109.56779797 13.09628614 112.68130554 9.29115097 116.39453125 5.484375 C123.21944179 -1.50985584 130.67453135 -5.80323152 140.64453125 -6.015625 C151.74516045 -5.78830836 159.44506216 -1.39702291 167.265625 6.23828125 C172.87848936 11.67604759 176.23260567 13.81375348 183.99609375 13.69140625 C189.56779797 13.09628614 192.68130554 9.29115097 196.39453125 5.484375 C203.21944179 -1.50985584 210.67453135 -5.80323152 220.64453125 -6.015625 C231.74516045 -5.78830836 239.44506216 -1.39702291 247.265625 6.23828125 C252.87848936 11.67604759 256.23260567 13.81375348 263.99609375 13.69140625 C269.56779797 13.09628614 272.68130554 9.29115097 276.39453125 5.484375 C283.21944179 -1.50985584 290.67453135 -5.80323152 300.64453125 -6.015625 C311.74516045 -5.78830836 319.44506216 -1.39702291 327.265625 6.23828125 C332.96060799 11.75560446 336.22127424 13.68658221 344.046875 13.6640625 C347.11898379 13.36316085 348.961284 12.07721146 351.51953125 10.421875 C355.05448343 11.68543238 357.5270252 14.04635477 360.26953125 16.546875 C361.06875 17.27132813 361.86796875 17.99578125 362.69140625 18.7421875 C363.2946875 19.29648437 363.89796875 19.85078125 364.51953125 20.421875 C363.16010428 23.7372122 362.0170639 25.04898203 358.76953125 26.546875 C358.1146875 26.85882813 357.45984375 27.17078125 356.78515625 27.4921875 C348.17559392 31.02507687 338.50553002 32.49537884 329.64453125 28.796875 C323.55149213 25.58704848 318.42436245 21.25878756 313.33203125 16.671875 C309.32342873 13.13900157 306.51094214 11.64314288 301.14453125 11.046875 C294.3025316 11.75466807 290.7621344 15.05610279 286.20703125 19.859375 C279.48194906 26.86130449 271.58899257 30.53372711 261.89453125 30.734375 C250.98542043 30.63336471 243.30382714 26.07631935 235.60546875 18.55078125 C234.4423926 17.36048416 233.29213966 16.15740445 232.16015625 14.9375 C228.11693428 11.20233304 224.28812518 10.97354904 218.96875 11.12109375 C213.21016884 11.82828793 210.06915926 15.88070692 206.26953125 19.859375 C199.4945757 26.82954113 191.60642584 30.53336629 181.89453125 30.734375 C170.98542043 30.63336471 163.30382714 26.07631935 155.60546875 18.55078125 C154.4423926 17.36048416 153.29213966 16.15740445 152.16015625 14.9375 C148.11693428 11.20233304 144.28812518 10.97354904 138.96875 11.12109375 C133.21016884 11.82828793 130.06915926 15.88070692 126.26953125 19.859375 C119.4945757 26.82954113 111.60642584 30.53336629 101.89453125 30.734375 C90.98542043 30.63336471 83.30382714 26.07631935 75.60546875 18.55078125 C74.4423926 17.36048416 73.29213966 16.15740445 72.16015625 14.9375 C68.11693428 11.20233304 64.28812518 10.97354904 58.96875 11.12109375 C53.21016884 11.82828793 50.06915926 15.88070692 46.26953125 19.859375 C39.4945757 26.82954113 31.60642584 30.53336629 21.89453125 30.734375 C10.98542043 30.63336471 3.30382714 26.07631935 -4.39453125 18.55078125 C-5.5576074 17.36048416 -6.70786034 16.15740445 -7.83984375 14.9375 C-11.88306572 11.20233304 -15.71187482 10.97354904 -21.03125 11.12109375 C-26.78983116 11.82828793 -29.93084074 15.88070692 -33.73046875 19.859375 C-40.42367893 26.74544039 -48.31159273 30.51842932 -57.91796875 30.796875 C-66.8904933 30.75038524 -74.46899617 28.03434483 -81.48046875 22.421875 C-79.97697498 18.75401107 -77.84318083 16.73277107 -74.85546875 14.171875 C-74.03820312 13.46546875 -73.2209375 12.7590625 -72.37890625 12.03125 C-71.75242187 11.50015625 -71.1259375 10.9690625 -70.48046875 10.421875 C-65.73046875 12.296875 -65.73046875 12.296875 -63.48046875 13.421875 C-58.66315898 13.9503928 -54.68727425 14.01344632 -50.29296875 11.859375 C-48.12729916 9.98246135 -46.20227885 8.11018441 -44.23046875 6.046875 C-32.00462755 -6.55848234 -15.1162119 -9.61724348 0 0 Z " fill="#000203" transform="translate(114.48046875,381.578125)"/>
<path d="M0 0 C2.55910868 2.00963039 5.02749083 4.08854138 7.4765625 6.23046875 C14.39581935 12.27585448 14.39581935 12.27585448 23.171875 13.4375 C28.26431184 12.98004381 31.27203865 10.54890991 34.6640625 6.98046875 C41.09811113 0.2454958 48.36256445 -4.38556036 57.7109375 -4.97265625 C70.97287027 -5.14948202 77.53444951 -2.46477859 87.4765625 6.23046875 C94.39581935 12.27585448 94.39581935 12.27585448 103.171875 13.4375 C108.26431184 12.98004381 111.27203865 10.54890991 114.6640625 6.98046875 C121.09811113 0.2454958 128.36256445 -4.38556036 137.7109375 -4.97265625 C150.97287027 -5.14948202 157.53444951 -2.46477859 167.4765625 6.23046875 C174.39581935 12.27585448 174.39581935 12.27585448 183.171875 13.4375 C188.26431184 12.98004381 191.27203865 10.54890991 194.6640625 6.98046875 C201.09811113 0.2454958 208.36256445 -4.38556036 217.7109375 -4.97265625 C230.97287027 -5.14948202 237.53444951 -2.46477859 247.4765625 6.23046875 C254.39581935 12.27585448 254.39581935 12.27585448 263.171875 13.4375 C268.26431184 12.98004381 271.27203865 10.54890991 274.6640625 6.98046875 C281.23398397 0.07249763 289.03310232 -4.81448831 298.63232422 -5.11401367 C311.88281516 -5.28203065 318.95301789 -1.77593059 328.36865234 7.39575195 C328.84512207 7.86070068 329.3215918 8.32564941 329.8125 8.8046875 C334.55587973 13.12380599 337.80107954 13.59071742 344.07421875 13.5078125 C347.08555273 13.16016256 348.96219382 11.85741319 351.4765625 10.23046875 C355.01151468 11.49402613 357.48405645 13.85494852 360.2265625 16.35546875 C361.02578125 17.07992188 361.825 17.804375 362.6484375 18.55078125 C363.25171875 19.10507812 363.855 19.659375 364.4765625 20.23046875 C362.72216993 24.48731976 360.65948526 25.50709843 356.6015625 27.34765625 C347.9181662 30.95509662 338.31067628 31.90926752 329.2890625 28.79296875 C324.36326738 26.55470028 320.66719344 23.1814249 316.80078125 19.44921875 C311.89112517 14.76235379 307.95671873 11.61715278 301.1015625 10.85546875 C294.6079296 11.52722388 291.06173982 14.49733329 286.7890625 19.10546875 C281.42999451 24.72723615 273.0207611 29.75077103 265.12890625 30.43359375 C252.22151899 30.65645511 244.76929177 26.77286306 235.3125 18.2890625 C230.63005492 14.08889172 227.51118618 11.56764916 221.1015625 10.85546875 C214.6079296 11.52722388 211.06173982 14.49733329 206.7890625 19.10546875 C201.25393186 24.91192933 192.77000937 29.78323847 184.65625 30.46875 C170.94305229 30.77672962 163.18266631 25.39212312 153.2890625 16.48046875 C149.28045998 12.94759532 146.46797339 11.45173663 141.1015625 10.85546875 C134.6079296 11.52722388 131.06173982 14.49733329 126.7890625 19.10546875 C121.25393186 24.91192933 112.77000937 29.78323847 104.65625 30.46875 C90.94305229 30.77672962 83.18266631 25.39212312 73.2890625 16.48046875 C69.28045998 12.94759532 66.46797339 11.45173663 61.1015625 10.85546875 C54.2559223 11.56363843 50.75118746 14.8374083 46.2265625 19.66796875 C39.37248261 26.8042063 30.60497689 30.2991748 20.7890625 30.54296875 C9.23061656 30.41657019 1.54087721 23.91328312 -6.7109375 16.48046875 C-10.69334136 12.9706848 -13.52971036 11.4937912 -18.8359375 10.79296875 C-25.65538222 11.60205541 -29.89329689 15.44536557 -34.5234375 20.29296875 C-40.92277295 26.95580625 -49.385775 30.47064386 -58.6484375 30.66796875 C-67.25243632 30.54970072 -74.81969642 27.60923512 -81.5234375 22.23046875 C-80.01994373 18.56260482 -77.88614958 16.54136482 -74.8984375 13.98046875 C-74.08117187 13.2740625 -73.26390625 12.56765625 -72.421875 11.83984375 C-71.79539062 11.30875 -71.16890625 10.77765625 -70.5234375 10.23046875 C-65.7734375 12.10546875 -65.7734375 12.10546875 -63.5234375 13.23046875 C-57.81933007 13.82369592 -53.38313915 13.50548508 -48.5234375 10.23046875 C-47.44224866 9.16578661 -46.38137397 8.0802778 -45.3359375 6.98046875 C-33.74249553 -5.15520547 -14.60070572 -10.23857537 0 0 Z " fill="#010304" transform="translate(114.5234375,421.76953125)"/>
<path d="M0 0 C0.78956589 -0.00979385 1.57913177 -0.01958771 2.3926239 -0.02967834 C20.09560697 -0.20394827 37.23760905 -0.03713629 54.53125 4.23828125 C55.83715088 4.55974121 55.83715088 4.55974121 57.16943359 4.88769531 C69.52083777 8.04623418 81.09499532 12.64138178 92.53125 18.23828125 C93.62397217 18.77026123 93.62397217 18.77026123 94.73876953 19.31298828 C136.92883128 40.10405618 169.81395053 77.84428977 185.43994141 122.1328125 C188.00287058 129.69836895 190.19303459 137.32495614 191.96875 145.11328125 C192.13286377 145.83201416 192.29697754 146.55074707 192.46606445 147.29125977 C193.42470966 151.82698739 193.53125 155.47661879 193.53125 160.23828125 C188.25125 160.89828125 182.97125 161.55828125 177.53125 162.23828125 C175.3081668 154.45749006 175.3081668 154.45749006 174.5234375 150.6640625 C164.86140083 105.91957859 138.90513226 68.13369769 100.53125 43.23828125 C62.93560256 19.28791761 16.92240717 11.91612535 -26.47045898 21.43334961 C-41.62265317 25.04650357 -55.82636666 30.77878316 -69.46875 38.23828125 C-70.53609375 38.81449219 -71.6034375 39.39070313 -72.703125 39.984375 C-79.16515245 43.60880231 -84.9791413 47.73697151 -90.77734375 52.3203125 C-93.46875 54.23828125 -93.46875 54.23828125 -98.46875 56.23828125 C-101.76875 52.27828125 -105.06875 48.31828125 -108.46875 44.23828125 C-81.39073098 17.16026223 -38.17887134 0.39331103 0 0 Z " fill="#000000" transform="translate(300.46875,39.76171875)"/>
<path d="M0 0 C2.11169 1.6699787 3.95133169 3.43223602 5.81640625 5.37109375 C9.64083546 9.34498341 12.93827896 11.39962355 18.50390625 12.12109375 C26.40132109 11.16795748 30.72686566 7.26934188 36.0546875 1.6484375 C39.34754985 -1.47078992 43.04159558 -3.41515251 47.12890625 -5.31640625 C48.05703125 -5.74953125 48.98515625 -6.18265625 49.94140625 -6.62890625 C59.90702435 -8.77835329 68.61034856 -7.45012576 77.2109375 -1.99609375 C81.82146861 1.33221865 85.98720177 5.18024003 90.1484375 9.046875 C93.88517277 12.13502505 97.44890133 12.06720071 102.12890625 11.68359375 C108.06154853 9.64388373 112.60440825 5.92531063 117.12890625 1.68359375 C118.83107605 3.25114555 120.51531179 4.83819159 122.19140625 6.43359375 C123.60099609 7.75617188 123.60099609 7.75617188 125.0390625 9.10546875 C127.12890625 11.68359375 127.12890625 11.68359375 127.1875 13.76171875 C122.94730228 21.45978988 114.32140781 25.80554 106.22265625 28.26171875 C96.72932459 30.17455423 89.0287583 28.51739274 81.04296875 23.328125 C77.51315839 20.80586588 74.44805468 18.05713132 71.44140625 14.93359375 C67.45152812 10.87198747 64.36204756 9.6209997 58.69140625 9.30859375 C52.36787539 9.48627974 48.98700361 12.75452034 44.75390625 17.12109375 C37.82357591 24.20307245 29.15662643 28.59359866 19.12890625 29.05859375 C8.06781302 28.52445645 -0.58084811 23.21388466 -8.12109375 15.43359375 C-8.724375 14.7684375 -9.32765625 14.10328125 -9.94921875 13.41796875 C-14.02360267 9.7410857 -18.38061889 9.22632008 -23.671875 9.375 C-28.75931767 10.08886851 -31.83649133 13.60398134 -35.24609375 17.12109375 C-41.93766098 23.97408036 -50.42515429 28.58932376 -60.12109375 29.12109375 C-68.52019828 28.81110922 -77.29775815 25.94226223 -83.87109375 20.68359375 C-82.36759998 17.01572982 -80.23380583 14.99448982 -77.24609375 12.43359375 C-76.42882812 11.7271875 -75.6115625 11.02078125 -74.76953125 10.29296875 C-74.14304687 9.761875 -73.5165625 9.23078125 -72.87109375 8.68359375 C-72.10796875 8.99296875 -71.34484375 9.30234375 -70.55859375 9.62109375 C-65.54030131 11.60506983 -61.25989563 12.74767754 -55.91796875 11.0703125 C-51.86920527 9.26112095 -49.08730586 7.0350993 -46.05859375 3.80859375 C-32.95666122 -10.0716714 -15.16287902 -10.57445998 0 0 Z " fill="#030303" transform="translate(116.87109375,339.31640625)"/>
<path d="M0 0 C7.53664964 4.8191547 11.9958708 12.38025505 15.9375 20.1875 C16.39938721 21.08944092 16.86127441 21.99138184 17.3371582 22.9206543 C20.64540317 29.4730771 23.77773261 36.10121856 26.75 42.8125 C27.32983643 44.09096802 27.32983643 44.09096802 27.92138672 45.39526367 C30.19856254 50.70184973 31.10289417 54.72096118 30.5625 60.5 C29.0625 63 29.0625 63 26.5625 64.5 C18.97226474 65.39552604 13.43271035 62.71189523 6.625 59.5625 C5.52414063 59.06322998 4.42328125 58.56395996 3.2890625 58.04956055 C-27.53728818 43.92456337 -27.53728818 43.92456337 -34.5 33.375 C-36.39514664 25.54172721 -37.16046321 16.39587328 -32.83984375 9.24609375 C-24.792077 -0.77438463 -12.46006225 -5.52151778 0 0 Z " fill="#000000" transform="translate(121.4375,95.5)"/>
<path d="M0 0 C1.07765625 0.38607422 2.1553125 0.77214844 3.265625 1.16992188 C6.91043758 2.4770408 10.55008657 3.79743458 14.1875 5.125 C15.37045654 5.5566748 16.55341309 5.98834961 17.7722168 6.43310547 C18.89281494 6.84963379 20.01341309 7.26616211 21.16796875 7.6953125 C22.17110107 8.06672363 23.1742334 8.43813477 24.20776367 8.82080078 C31.43687652 11.87375305 31.43687652 11.87375305 33 15 C33.58917351 22.30575151 33.58917351 22.30575151 31.3203125 24.97924805 C28.76287108 27.20651474 26.61516559 28.21068922 23.44921875 29.40234375 C22.36463379 29.81556885 21.28004883 30.22879395 20.16259766 30.65454102 C19.01581543 31.07791748 17.8690332 31.50129395 16.6875 31.9375 C15.52009277 32.37698975 14.35268555 32.81647949 13.14990234 33.26928711 C4.83534395 36.37845459 -3.50601247 39.41330408 -12 42 C-12.97066406 42.29777344 -12.97066406 42.29777344 -13.9609375 42.6015625 C-21.20627241 44.0173176 -29.78252202 44.3130082 -36.25390625 40.40234375 C-41.13592264 36.48144021 -45.12676295 32.04384031 -47 26 C-47.80514105 18.16391792 -48.12460392 10.38077423 -43 4 C-30.37096269 -9.26180744 -15.77395792 -5.76720533 0 0 Z " fill="#000000" transform="translate(103,157)"/>
<path d="M0 0 C0.77923828 1.64548828 0.77923828 1.64548828 1.57421875 3.32421875 C2.27810134 4.77890943 2.98255902 6.23332193 3.6875 7.6875 C4.02716797 8.40873047 4.36683594 9.12996094 4.71679688 9.87304688 C7.49248477 15.5541277 10.38180794 19.74125382 16.25 22.5625 C19 25 19 25 19.35546875 27.42578125 C19.38253906 28.39902344 19.40960938 29.37226563 19.4375 30.375 C19.68814358 38.52592933 23.20564208 46.81933867 28.7265625 52.90234375 C29.14679688 53.26457031 29.56703125 53.62679687 30 54 C28.73787538 57.78637387 27.64528879 58.03485429 24.1953125 59.8828125 C23.21949219 60.41003906 22.24367188 60.93726563 21.23828125 61.48046875 C20.21089844 62.02316406 19.18351562 62.56585938 18.125 63.125 C17.10535156 63.67542969 16.08570313 64.22585938 15.03515625 64.79296875 C3.4313661 71.015291 3.4313661 71.015291 -4 70 C-10.42740864 66.66269167 -13.83214037 61.61681219 -17.19921875 55.3671875 C-18.05290039 53.78744141 -18.05290039 53.78744141 -18.92382812 52.17578125 C-19.50583984 51.08652344 -20.08785156 49.99726563 -20.6875 48.875 C-21.57791992 47.22951172 -21.57791992 47.22951172 -22.48632812 45.55078125 C-26.51177877 38.06904288 -29.04945032 32.61525495 -28 24 C-24.22511311 12.11087025 -15.23226265 6.81401335 -4.7578125 1.28515625 C-2 0 -2 0 0 0 Z " fill="#FBBD91" transform="translate(292,282)"/>
<path d="M0 0 C4.56855686 3.45749626 8.85053134 7.27172717 13.10546875 11.10546875 C16.60672955 14.07776209 19.83814169 13.74319847 24.26171875 13.73046875 C27.33382754 13.4295671 29.17612775 12.14361771 31.734375 10.48828125 C35.46170084 11.75715813 37.78593767 14.33547812 40.484375 17.11328125 C41.28359375 17.93054688 42.0828125 18.7478125 42.90625 19.58984375 C43.50953125 20.21632813 44.1128125 20.8428125 44.734375 21.48828125 C43.56481051 24.99697472 42.80367876 25.56478177 39.734375 27.48828125 C30.23800266 31.43191365 19.82972812 33.87559981 9.984375 29.86328125 C3.14181699 26.34319274 -2.41384836 21.61980754 -7.625 16.00390625 C-11.47484457 12.44738317 -14.97079298 12.09302952 -20.03515625 12.25 C-26.50303979 12.94096479 -29.92436729 17.07132594 -34.19921875 21.4921875 C-40.55082573 27.62767175 -48.83238434 31.50407872 -57.703125 31.86328125 C-66.26084134 31.52037624 -73.35406976 28.37270437 -80.265625 23.48828125 C-78.8032858 20.16614655 -76.95755894 17.79514142 -74.453125 15.17578125 C-73.78667969 14.45777344 -73.12023437 13.73976563 -72.43359375 13 C-70.265625 11.48828125 -70.265625 11.48828125 -67.62890625 11.6953125 C-65.265625 12.48828125 -65.265625 12.48828125 -63.265625 13.48828125 C-58.44831523 14.01679905 -54.4724305 14.07985257 -50.078125 11.92578125 C-47.88977691 10.02921291 -45.90268234 8.12161779 -43.890625 6.05078125 C-32.66613149 -5.47039491 -13.9110102 -9.28200164 0 0 Z " fill="#010304" transform="translate(434.265625,336.51171875)"/>
<path d="M0 0 C7.72081776 4.76918217 12.09088912 11.18241514 16.0625 19.1875 C16.49949219 20.03699219 16.93648438 20.88648438 17.38671875 21.76171875 C20.82966312 28.50903698 22.63069596 33.77267766 21.6875 41.4375 C19.47865163 48.2027172 15.79763244 53.65137259 9.6875 57.4375 C9.0275 57.4375 8.3675 57.4375 7.6875 57.4375 C-0.3125 41.4375 -0.3125 41.4375 -1.32080078 39.26074219 C-2.61820227 36.87546539 -3.84135349 36.49656279 -6.3125 35.4375 C-8.9296875 34.20703125 -8.9296875 34.20703125 -11.3125 32.4375 C-11.73828125 30.046875 -11.73828125 30.046875 -11.625 27.1875 C-11.93441024 18.73028673 -16.13423912 12.54652465 -20.3125 5.4375 C-20.99441816 4.11190208 -21.67015724 2.78272043 -22.3125 1.4375 C-15.78981588 -2.91095608 -7.14488839 -3.23121658 0 0 Z " fill="#E64545" transform="translate(354.3125,257.5625)"/>
<path d="M0 0 C4.38894929 3.26720791 8.75259665 6.54898478 13 10 C11.48968223 14.80065293 8.76703446 17.92742611 5.5 21.625 C1.54596326 26.15057325 1.54596326 26.15057325 -2 31 C-5.52238047 29.43632643 -8.27123994 27.30504111 -11.25 24.875 C-12.14203125 24.15054688 -13.0340625 23.42609375 -13.953125 22.6796875 C-14.62859375 22.12539062 -15.3040625 21.57109375 -16 21 C-13.12814862 15.58391135 -9.80436841 11.14548821 -5.75 6.5625 C-5.19570312 5.92634766 -4.64140625 5.29019531 -4.0703125 4.63476562 C-2.71882723 3.08521786 -1.36015825 1.54194041 0 0 Z " fill="#000000" transform="translate(176,98)"/>
<path d="M0 0 C7.23050005 1.7749964 14.23848385 4.30070023 21.24609375 6.796875 C21.24609375 7.456875 21.24609375 8.116875 21.24609375 8.796875 C-0.9270129 16.69513848 -0.9270129 16.69513848 -6.75390625 15.796875 C-10.36340542 13.41460555 -11.49875852 12.02158409 -12.37890625 7.796875 C-10.88490171 0.62565319 -6.62161403 -1.00785602 0 0 Z " fill="#39ABE6" transform="translate(83.75390625,168.203125)"/>
<path d="M0 0 C3.86273972 0.80473744 5.62871421 2.62487923 8 5.625 C9.94764504 8.76709645 11.63712243 12.01883181 13.3125 15.3125 C13.9940918 16.6128418 13.9940918 16.6128418 14.68945312 17.93945312 C18 24.33652491 18 24.33652491 18 26.625 C13.16088033 25.16653271 8.87685211 23.17688914 4.4375 20.8125 C3.79103516 20.48185547 3.14457031 20.15121094 2.47851562 19.81054688 C-1.68174081 17.60556864 -4.89813486 15.252605 -8 11.625 C-8.625 8.625 -8.625 8.625 -8 5.625 C-5.54405875 2.30225596 -4.0743356 0.84881992 0 0 Z " fill="#39ACE7" transform="translate(110,109.375)"/>
<path d="M0 0 C4.25872626 3.2683248 6.83083431 7.16109192 9 12 C9.07328094 16.32357536 8.68090795 18.19893182 5.875 21.5 C3 23 3 23 -0.4375 23.3125 C-6.17956317 21.19700304 -8.35561398 16.28877204 -11 11 C-11.35519903 7.16385043 -11.54724594 4.85370366 -9.4375 1.5625 C-6.01685857 -0.63021887 -3.99048721 -0.63007693 0 0 Z " fill="#0A97DF" transform="translate(338,305)"/>
<path d="M0 0 C2.09559527 2.04796811 3.44852166 3.61311024 5 6 C5.8971875 7.2065625 5.8971875 7.2065625 6.8125 8.4375 C8.40434993 11.87254459 8.47632475 14.25744836 8 18 C6.5 20.4375 6.5 20.4375 4 22 C1.19507178 22.60926719 -1.20221959 22.66915985 -4 22 C-6.3125 19.8125 -6.3125 19.8125 -8 17 C-8.5775 16.2575 -9.155 15.515 -9.75 14.75 C-11.53476334 10.82352066 -11.71941237 7.24289795 -11 3 C-8.12890077 -0.78985098 -4.47988797 -0.70735073 0 0 Z " fill="#0A98E1" transform="translate(319,270)"/>
</svg>
